<svg xmlns="http://www.w3.org/2000/svg" xmlns:xlink="http://www.w3.org/1999/xlink" viewBox="0 0 77.57 85.58"><defs><style>.cls-1{isolation:isolate;}.cls-10,.cls-100,.cls-101,.cls-102,.cls-103,.cls-104,.cls-105,.cls-106,.cls-107,.cls-108,.cls-11,.cls-110,.cls-111,.cls-112,.cls-113,.cls-114,.cls-115,.cls-116,.cls-117,.cls-118,.cls-119,.cls-12,.cls-120,.cls-121,.cls-122,.cls-123,.cls-124,.cls-125,.cls-126,.cls-127,.cls-128,.cls-129,.cls-13,.cls-130,.cls-131,.cls-132,.cls-133,.cls-135,.cls-136,.cls-137,.cls-138,.cls-139,.cls-14,.cls-140,.cls-141,.cls-142,.cls-143,.cls-144,.cls-145,.cls-146,.cls-147,.cls-148,.cls-149,.cls-15,.cls-150,.cls-151,.cls-152,.cls-16,.cls-17,.cls-18,.cls-19,.cls-2,.cls-20,.cls-21,.cls-22,.cls-23,.cls-24,.cls-25,.cls-26,.cls-27,.cls-28,.cls-29,.cls-3,.cls-30,.cls-31,.cls-32,.cls-33,.cls-34,.cls-35,.cls-36,.cls-37,.cls-38,.cls-39,.cls-4,.cls-40,.cls-41,.cls-42,.cls-43,.cls-44,.cls-45,.cls-46,.cls-47,.cls-48,.cls-49,.cls-5,.cls-50,.cls-51,.cls-52,.cls-53,.cls-54,.cls-55,.cls-56,.cls-57,.cls-58,.cls-59,.cls-6,.cls-60,.cls-61,.cls-62,.cls-63,.cls-64,.cls-65,.cls-66,.cls-67,.cls-68,.cls-69,.cls-7,.cls-70,.cls-71,.cls-72,.cls-73,.cls-74,.cls-75,.cls-76,.cls-77,.cls-78,.cls-79,.cls-8,.cls-80,.cls-81,.cls-82,.cls-83,.cls-84,.cls-85,.cls-86,.cls-87,.cls-88,.cls-89,.cls-9,.cls-90,.cls-91,.cls-93,.cls-94,.cls-95,.cls-96,.cls-97,.cls-98,.cls-99{fill-rule:evenodd;}.cls-2{fill:url(#linear-gradient);}.cls-142,.cls-3,.cls-34,.cls-48,.cls-56,.cls-77,.cls-99{opacity:0.25;}.cls-103,.cls-104,.cls-106,.cls-107,.cls-108,.cls-11,.cls-112,.cls-113,.cls-12,.cls-120,.cls-125,.cls-126,.cls-127,.cls-128,.cls-133,.cls-138,.cls-139,.cls-140,.cls-142,.cls-145,.cls-146,.cls-148,.cls-149,.cls-150,.cls-151,.cls-152,.cls-17,.cls-18,.cls-22,.cls-23,.cls-25,.cls-3,.cls-34,.cls-35,.cls-4,.cls-42,.cls-43,.cls-44,.cls-45,.cls-46,.cls-48,.cls-49,.cls-55,.cls-56,.cls-60,.cls-61,.cls-65,.cls-66,.cls-68,.cls-77,.cls-78,.cls-85,.cls-86,.cls-87,.cls-88,.cls-89,.cls-91,.cls-96,.cls-99{mix-blend-mode:screen;}.cls-3{fill:url(#linear-gradient-2);}.cls-103,.cls-104,.cls-145,.cls-146,.cls-4,.cls-49{opacity:0.2;}.cls-4{fill:url(#radial-gradient);}.cls-10,.cls-110,.cls-111,.cls-116,.cls-117,.cls-118,.cls-122,.cls-123,.cls-124,.cls-129,.cls-13,.cls-135,.cls-136,.cls-137,.cls-16,.cls-19,.cls-21,.cls-24,.cls-28,.cls-29,.cls-32,.cls-33,.cls-40,.cls-41,.cls-5,.cls-50,.cls-52,.cls-54,.cls-57,.cls-59,.cls-62,.cls-64,.cls-67,.cls-7,.cls-71,.cls-72,.cls-75,.cls-76,.cls-83,.cls-84,.cls-93,.cls-94,.cls-95,.cls-97{mix-blend-mode:multiply;}.cls-5{fill:url(#linear-gradient-3);}.cls-6{fill:url(#linear-gradient-4);}.cls-7{fill:url(#linear-gradient-5);}.cls-8{fill:#333;}.cls-9{fill:url(#linear-gradient-6);}.cls-10{fill:url(#radial-gradient-2);}.cls-11,.cls-117,.cls-118,.cls-12,.cls-124,.cls-139,.cls-16,.cls-19,.cls-22,.cls-28,.cls-29,.cls-35,.cls-46,.cls-57,.cls-62,.cls-65,.cls-72,.cls-78,.cls-91{opacity:0.5;}.cls-11{fill:url(#radial-gradient-3);}.cls-12{fill:url(#radial-gradient-4);}.cls-13{fill:url(#radial-gradient-5);}.cls-14{fill:#fff597;opacity:0.35;}.cls-15{fill:url(#linear-gradient-7);}.cls-16{fill:url(#linear-gradient-8);}.cls-17,.cls-42,.cls-55{opacity:0.65;}.cls-17{fill:url(#radial-gradient-6);}.cls-18{fill:url(#radial-gradient-7);}.cls-19{fill:url(#linear-gradient-9);}.cls-20{fill:url(#linear-gradient-10);}.cls-21{fill:url(#linear-gradient-11);}.cls-22{fill:url(#radial-gradient-8);}.cls-106,.cls-108,.cls-123,.cls-133,.cls-148,.cls-149,.cls-150,.cls-151,.cls-152,.cls-23,.cls-43,.cls-60,.cls-61,.cls-66,.cls-85,.cls-86{opacity:0.3;}.cls-23{fill:url(#radial-gradient-9);}.cls-24{fill:url(#linear-gradient-12);}.cls-25{fill:url(#linear-gradient-13);}.cls-26{fill:url(#linear-gradient-14);}.cls-27{fill:url(#linear-gradient-15);}.cls-28{fill:url(#linear-gradient-16);}.cls-29{fill:url(#linear-gradient-17);}.cls-30{fill:url(#linear-gradient-18);}.cls-31{fill:url(#radial-gradient-10);}.cls-32{fill:url(#radial-gradient-11);}.cls-33{fill:url(#radial-gradient-12);}.cls-34{fill:url(#radial-gradient-13);}.cls-35{fill:url(#radial-gradient-14);}.cls-36{fill:url(#linear-gradient-19);}.cls-37{fill:url(#linear-gradient-20);}.cls-38{fill:url(#linear-gradient-21);}.cls-39{fill:url(#linear-gradient-22);}.cls-40{fill:url(#radial-gradient-15);}.cls-41{fill:url(#radial-gradient-16);}.cls-42{fill:url(#radial-gradient-17);}.cls-43{fill:url(#radial-gradient-18);}.cls-44{fill:url(#radial-gradient-19);}.cls-45{fill:url(#radial-gradient-20);}.cls-46{fill:url(#radial-gradient-21);}.cls-47{fill:url(#linear-gradient-23);}.cls-48{fill:url(#linear-gradient-24);}.cls-49{fill:url(#radial-gradient-22);}.cls-50{fill:url(#linear-gradient-25);}.cls-51{fill:url(#linear-gradient-26);}.cls-52{fill:url(#linear-gradient-27);}.cls-53{fill:url(#linear-gradient-28);}.cls-54{fill:url(#radial-gradient-23);}.cls-55{fill:url(#radial-gradient-24);}.cls-56{fill:url(#radial-gradient-25);}.cls-57{fill:url(#radial-gradient-26);}.cls-58{fill:url(#linear-gradient-29);}.cls-125,.cls-126,.cls-127,.cls-59,.cls-71{opacity:0.6;}.cls-59{fill:url(#linear-gradient-30);}.cls-60{fill:url(#radial-gradient-27);}.cls-61{fill:url(#radial-gradient-28);}.cls-62{fill:url(#linear-gradient-31);}.cls-63{fill:url(#linear-gradient-32);}.cls-64{fill:url(#linear-gradient-33);}.cls-65{fill:url(#radial-gradient-29);}.cls-66{fill:url(#radial-gradient-30);}.cls-67{fill:url(#linear-gradient-34);}.cls-68{fill:url(#linear-gradient-35);}.cls-69{fill:url(#linear-gradient-36);}.cls-70{fill:url(#linear-gradient-37);}.cls-71{fill:url(#linear-gradient-38);}.cls-72{fill:url(#linear-gradient-39);}.cls-73{fill:url(#linear-gradient-40);}.cls-74{fill:url(#radial-gradient-31);}.cls-75{fill:url(#radial-gradient-32);}.cls-76{fill:url(#radial-gradient-33);}.cls-77{fill:url(#radial-gradient-34);}.cls-78{fill:url(#radial-gradient-35);}.cls-79{fill:url(#linear-gradient-41);}.cls-80{fill:url(#linear-gradient-42);}.cls-81{fill:url(#linear-gradient-43);}.cls-82{fill:url(#linear-gradient-44);}.cls-83{fill:url(#radial-gradient-36);}.cls-84{fill:url(#radial-gradient-37);}.cls-85{fill:url(#radial-gradient-38);}.cls-86{fill:url(#radial-gradient-39);}.cls-87{opacity:0.8;fill:url(#radial-gradient-40);}.cls-88{opacity:0.4;fill:url(#radial-gradient-41);}.cls-89{fill:url(#linear-gradient-45);}.cls-90{fill:url(#linear-gradient-46);}.cls-91{fill:url(#radial-gradient-42);}.cls-92{fill:url(#radial-gradient-43);}.cls-93{fill:url(#radial-gradient-44);}.cls-94{fill:url(#radial-gradient-45);}.cls-95{fill:url(#radial-gradient-46);}.cls-96{fill:url(#radial-gradient-47);}.cls-97{fill:url(#radial-gradient-48);}.cls-98{fill:url(#linear-gradient-47);}.cls-99{fill:url(#linear-gradient-48);}.cls-100{fill:url(#linear-gradient-49);}.cls-101{fill:#23292d;}.cls-102{fill:url(#linear-gradient-50);}.cls-103{fill:url(#radial-gradient-49);}.cls-104{fill:url(#radial-gradient-50);}.cls-105{fill:url(#radial-gradient-51);}.cls-106{fill:url(#radial-gradient-52);}.cls-107{fill:url(#radial-gradient-53);}.cls-108{fill:url(#radial-gradient-54);}.cls-109{fill:url(#linear-gradient-51);}.cls-110{fill:url(#radial-gradient-55);}.cls-111{fill:url(#radial-gradient-56);}.cls-112{fill:url(#radial-gradient-57);}.cls-113{fill:url(#radial-gradient-58);}.cls-114{fill:gray;}.cls-115{fill:url(#linear-gradient-52);}.cls-116{fill:url(#radial-gradient-59);}.cls-117{fill:url(#radial-gradient-60);}.cls-118{fill:url(#radial-gradient-61);}.cls-119{fill:url(#radial-gradient-62);}.cls-120{fill:url(#radial-gradient-63);}.cls-121{fill:url(#radial-gradient-64);}.cls-122{fill:url(#radial-gradient-65);}.cls-123{fill:url(#radial-gradient-66);}.cls-124{fill:url(#linear-gradient-53);}.cls-125{fill:url(#linear-gradient-54);}.cls-126{fill:url(#linear-gradient-55);}.cls-127{fill:url(#linear-gradient-56);}.cls-128{fill:url(#radial-gradient-67);}.cls-129{fill:url(#radial-gradient-68);}.cls-130{fill:url(#linear-gradient-57);}.cls-131{fill:#e6e6e6;}.cls-132{fill:url(#linear-gradient-58);}.cls-133{fill:url(#radial-gradient-69);}.cls-134{fill:url(#radial-gradient-70);}.cls-135{fill:url(#radial-gradient-71);}.cls-136{fill:url(#radial-gradient-72);}.cls-137{fill:url(#radial-gradient-73);}.cls-138{fill:url(#radial-gradient-74);}.cls-139{fill:url(#radial-gradient-75);}.cls-140{fill:url(#radial-gradient-76);}.cls-141{fill:url(#linear-gradient-59);}.cls-142{fill:url(#linear-gradient-60);}.cls-143{fill:url(#linear-gradient-61);}.cls-144{fill:url(#linear-gradient-62);}.cls-145{fill:url(#radial-gradient-77);}.cls-146{fill:url(#radial-gradient-78);}.cls-147{fill:url(#radial-gradient-79);}.cls-148{fill:url(#radial-gradient-80);}.cls-149{fill:url(#radial-gradient-81);}.cls-150{fill:url(#radial-gradient-82);}.cls-151{fill:url(#radial-gradient-83);}.cls-152{fill:url(#radial-gradient-84);}</style><linearGradient id="linear-gradient" x1="-150.07" y1="-167.79" x2="-133.12" y2="-167.79" gradientTransform="matrix(0.83, 0.55, -0.55, 0.83, 49.48, 271.59)" gradientUnits="userSpaceOnUse"><stop offset="0" stop-color="#28343d"/><stop offset="0.01" stop-color="#29353e"/><stop offset="0.14" stop-color="#343e47"/><stop offset="0.29" stop-color="#38414a"/><stop offset="0.56" stop-color="#29323b"/><stop offset="1" stop-color="#151e26"/></linearGradient><linearGradient id="linear-gradient-2" x1="-149.41" y1="-167.8" x2="-135.41" y2="-167.8" gradientTransform="matrix(0.83, 0.55, -0.55, 0.83, 49.48, 271.59)" gradientUnits="userSpaceOnUse"><stop offset="0" stop-color="#1d1d1b"/><stop offset="0.23" stop-color="#bae7ff"/><stop offset="0.86" stop-color="#1d1d1b"/></linearGradient><radialGradient id="radial-gradient" cx="-137.99" cy="-172.84" r="13.82" gradientTransform="matrix(0.83, 0.55, -0.55, 0.83, 49.48, 271.59)" gradientUnits="userSpaceOnUse"><stop offset="0.53" stop-color="#1d1d1b"/><stop offset="0.59" stop-color="#211e1b"/><stop offset="0.65" stop-color="#2c2019"/><stop offset="0.7" stop-color="#402417"/><stop offset="0.76" stop-color="#5b2913"/><stop offset="0.82" stop-color="#7e300f"/><stop offset="0.88" stop-color="#a9380a"/><stop offset="0.93" stop-color="#db4104"/><stop offset="0.96" stop-color="#f94700"/></radialGradient><linearGradient id="linear-gradient-3" x1="-150.07" y1="-169.48" x2="-133.12" y2="-169.48" gradientTransform="matrix(0.83, 0.55, -0.55, 0.83, 49.48, 271.59)" gradientUnits="userSpaceOnUse"><stop offset="0" stop-color="#3c536b"/><stop offset="0.09" stop-color="#455b72"/><stop offset="0.25" stop-color="#5d7084"/><stop offset="0.44" stop-color="#8593a2"/><stop offset="0.67" stop-color="#bcc4cc"/><stop offset="0.91" stop-color="#fff"/></linearGradient><linearGradient id="linear-gradient-4" x1="-152.7" y1="-173.88" x2="-130.49" y2="-173.88" xlink:href="#linear-gradient"/><linearGradient id="linear-gradient-5" x1="-151.84" y1="-173.91" x2="-133.49" y2="-173.91" xlink:href="#linear-gradient-3"/><linearGradient id="linear-gradient-6" x1="-153.69" y1="-173.62" x2="-129.5" y2="-173.62" gradientTransform="matrix(0.83, 0.55, -0.55, 0.83, 49.48, 271.59)" gradientUnits="userSpaceOnUse"><stop offset="0" stop-color="#c28200"/><stop offset="0.23" stop-color="#d4b200"/><stop offset="1" stop-color="#ab6700"/></linearGradient><radialGradient id="radial-gradient-2" cx="-144.22" cy="-178.32" r="11.01" gradientTransform="matrix(0.83, 0.55, -0.55, 0.83, 49.48, 271.59)" gradientUnits="userSpaceOnUse"><stop offset="0" stop-color="#fff"/><stop offset="0.78" stop-color="#fff"/><stop offset="0.81" stop-color="#dbdad6"/><stop offset="0.85" stop-color="#afada5"/><stop offset="0.9" stop-color="#8d8b7f"/><stop offset="0.94" stop-color="#757264"/><stop offset="0.97" stop-color="#666253"/><stop offset="1" stop-color="#615d4d"/></radialGradient><radialGradient id="radial-gradient-3" cx="-149.85" cy="-175.29" r="10.53" gradientTransform="matrix(0.83, 0.55, -0.55, 0.83, 49.48, 271.59)" gradientUnits="userSpaceOnUse"><stop offset="0" stop-color="#fcf171"/><stop offset="0.17" stop-color="#bbb254"/><stop offset="0.33" stop-color="#827c3a"/><stop offset="0.49" stop-color="#535025"/><stop offset="0.64" stop-color="#2f2d15"/><stop offset="0.78" stop-color="#151409"/><stop offset="0.9" stop-color="#050502"/><stop offset="1"/></radialGradient><radialGradient id="radial-gradient-4" cx="-140" cy="-175.53" r="10.14" xlink:href="#radial-gradient-3"/><radialGradient id="radial-gradient-5" cx="-137.55" cy="-176.7" r="8.22" xlink:href="#radial-gradient-2"/><linearGradient id="linear-gradient-7" x1="-153.93" y1="-182.99" x2="-129.26" y2="-182.99" gradientTransform="matrix(0.83, 0.55, -0.55, 0.83, 49.48, 271.59)" gradientUnits="userSpaceOnUse"><stop offset="0" stop-color="#d69000"/><stop offset="0.23" stop-color="#e8cd00"/><stop offset="1" stop-color="#cf7c00"/></linearGradient><linearGradient id="linear-gradient-8" x1="-153.93" y1="-184.72" x2="-152.76" y2="-184.72" gradientTransform="matrix(0.83, 0.55, -0.55, 0.83, 49.48, 271.59)" gradientUnits="userSpaceOnUse"><stop offset="0" stop-color="#615d4d"/><stop offset="0.18" stop-color="#8d8a7e"/><stop offset="0.37" stop-color="#b5b3ac"/><stop offset="0.55" stop-color="#d5d4d0"/><stop offset="0.72" stop-color="#ececea"/><stop offset="0.88" stop-color="#fafafa"/><stop offset="1" stop-color="#fff"/></linearGradient><radialGradient id="radial-gradient-6" cx="-149.77" cy="-187.56" r="20.52" xlink:href="#radial-gradient-3"/><radialGradient id="radial-gradient-7" cx="-145.42" cy="-164.38" r="26.54" xlink:href="#radial-gradient-3"/><linearGradient id="linear-gradient-9" x1="-131.35" y1="-184.33" x2="-129.26" y2="-184.33" gradientTransform="matrix(0.83, 0.55, -0.55, 0.83, 49.48, 271.59)" gradientUnits="userSpaceOnUse"><stop offset="0" stop-color="#fff"/><stop offset="1" stop-color="#615d4d"/></linearGradient><linearGradient id="linear-gradient-10" x1="-155.17" y1="-195.13" x2="-128.03" y2="-195.13" gradientTransform="matrix(0.83, 0.55, -0.55, 0.83, 49.48, 271.59)" gradientUnits="userSpaceOnUse"><stop offset="0" stop-color="#961d1d"/><stop offset="0.25" stop-color="#c9534d"/><stop offset="1" stop-color="#8a2b2b"/></linearGradient><linearGradient id="linear-gradient-11" x1="-155.17" y1="-197.04" x2="-153.87" y2="-197.04" gradientTransform="matrix(0.83, 0.55, -0.55, 0.83, 49.48, 271.59)" gradientUnits="userSpaceOnUse"><stop offset="0" stop-color="#9e615f"/><stop offset="1" stop-color="#fff"/></linearGradient><radialGradient id="radial-gradient-8" cx="-151.89" cy="-207.6" r="23.35" gradientTransform="matrix(0.83, 0.55, -0.55, 0.83, 49.48, 271.59)" gradientUnits="userSpaceOnUse"><stop offset="0" stop-color="#e67671"/><stop offset="1"/></radialGradient><radialGradient id="radial-gradient-9" cx="-144.85" cy="-210.47" r="27.19" xlink:href="#radial-gradient-8"/><linearGradient id="linear-gradient-12" x1="-130.32" y1="-196.61" x2="-128.03" y2="-196.61" gradientTransform="matrix(0.83, 0.55, -0.55, 0.83, 49.48, 271.59)" gradientUnits="userSpaceOnUse"><stop offset="0" stop-color="#fff"/><stop offset="1" stop-color="#9e615f"/></linearGradient><linearGradient id="linear-gradient-13" x1="-155.08" y1="-206.37" x2="-128.21" y2="-206.37" gradientTransform="matrix(0.83, 0.55, -0.55, 0.83, 49.48, 271.59)" xlink:href="#radial-gradient-8"/><linearGradient id="linear-gradient-14" x1="-155.17" y1="-206.56" x2="-128.03" y2="-206.56" gradientTransform="matrix(0.83, 0.55, -0.55, 0.83, 49.48, 271.59)" gradientUnits="userSpaceOnUse"><stop offset="0" stop-color="#e65f58"/><stop offset="1" stop-color="#692121"/></linearGradient><linearGradient id="linear-gradient-15" x1="-153.87" y1="-207.12" x2="-129.33" y2="-207.12" xlink:href="#linear-gradient-7"/><linearGradient id="linear-gradient-16" x1="-153.87" y1="-208.75" x2="-152.7" y2="-208.75" xlink:href="#linear-gradient-8"/><linearGradient id="linear-gradient-17" x1="-131.56" y1="-208.38" x2="-129.33" y2="-208.38" xlink:href="#linear-gradient-9"/><linearGradient id="linear-gradient-18" x1="-141.6" y1="-218.38" x2="-141.6" y2="-223.54" gradientTransform="matrix(0.83, 0.55, -0.55, 0.83, 49.48, 271.59)" gradientUnits="userSpaceOnUse"><stop offset="0" stop-color="#b88a2e"/><stop offset="1" stop-color="#66491c"/></linearGradient><radialGradient id="radial-gradient-10" cx="-146.48" cy="-217.5" r="17.93" gradientTransform="matrix(0.83, 0.55, -0.55, 0.83, 49.48, 271.59)" gradientUnits="userSpaceOnUse"><stop offset="0" stop-color="#739abf"/><stop offset="1" stop-color="#2d4670"/></radialGradient><radialGradient id="radial-gradient-11" cx="-137.41" cy="-216.05" r="19.64" gradientTransform="matrix(0.83, 0.55, -0.55, 0.83, 49.48, 271.59)" gradientUnits="userSpaceOnUse"><stop offset="0.55" stop-color="#fff"/><stop offset="1" stop-color="#2d4670"/></radialGradient><radialGradient id="radial-gradient-12" cx="-147.12" cy="-214.47" r="22.69" xlink:href="#radial-gradient-11"/><radialGradient id="radial-gradient-13" cx="-139.36" cy="-214.11" r="29.02" gradientTransform="matrix(0.83, 0.55, -0.55, 0.83, 49.48, 271.59)" gradientUnits="userSpaceOnUse"><stop offset="0" stop-color="#89a5cf"/><stop offset="0.04" stop-color="#7f99c1"/><stop offset="0.19" stop-color="#596b87"/><stop offset="0.34" stop-color="#394556"/><stop offset="0.48" stop-color="#202731"/><stop offset="0.61" stop-color="#0f1216"/><stop offset="0.73" stop-color="#040506"/><stop offset="0.81"/></radialGradient><radialGradient id="radial-gradient-14" cx="-149.38" cy="-216.09" r="17.51" gradientTransform="matrix(0.83, 0.55, -0.55, 0.83, 49.48, 271.59)" gradientUnits="userSpaceOnUse"><stop offset="0" stop-color="#89a5cf"/><stop offset="0.02" stop-color="#849fc8"/><stop offset="0.24" stop-color="#566782"/><stop offset="0.43" stop-color="#313b4a"/><stop offset="0.6" stop-color="#161b22"/><stop offset="0.73" stop-color="#060709"/><stop offset="0.81"/></radialGradient><linearGradient id="linear-gradient-19" x1="-153.87" y1="-213.32" x2="-129.33" y2="-213.32" gradientTransform="matrix(0.83, 0.55, -0.55, 0.83, 49.48, 271.59)" gradientUnits="userSpaceOnUse"><stop offset="0" stop-color="#d69818"/><stop offset="0.23" stop-color="#f0d71a"/><stop offset="1" stop-color="#cf8d29"/></linearGradient><linearGradient id="linear-gradient-20" x1="-132.84" y1="-208.94" x2="-132.99" y2="-217.74" gradientTransform="matrix(0.83, 0.55, -0.55, 0.83, 49.48, 271.59)" gradientUnits="userSpaceOnUse"><stop offset="0.22" stop-color="#b88a2e"/><stop offset="0.31" stop-color="#dbba11"/><stop offset="0.39" stop-color="#bf9547"/><stop offset="0.55" stop-color="#b58949"/><stop offset="0.77" stop-color="#cfa200"/><stop offset="0.84" stop-color="#bd893a"/></linearGradient><linearGradient id="linear-gradient-21" x1="-150.2" y1="-218.18" x2="-150.35" y2="-209.51" xlink:href="#linear-gradient-20"/><linearGradient id="linear-gradient-22" x1="-147.05" y1="-213.59" x2="-136.15" y2="-213.59" gradientTransform="matrix(0.83, 0.55, -0.55, 0.83, 49.48, 271.59)" gradientUnits="userSpaceOnUse"><stop offset="0" stop-color="#cfa200"/><stop offset="1" stop-color="#b88a2e"/></linearGradient><radialGradient id="radial-gradient-15" cx="-141" cy="-210.66" r="18.12" gradientTransform="matrix(0.83, 0.55, -0.55, 0.83, 49.48, 271.59)" gradientUnits="userSpaceOnUse"><stop offset="0" stop-color="#fff"/><stop offset="0.54" stop-color="#fff"/><stop offset="0.61" stop-color="#dbdad6"/><stop offset="0.7" stop-color="#afada5"/><stop offset="0.79" stop-color="#8d8b7f"/><stop offset="0.87" stop-color="#757264"/><stop offset="0.95" stop-color="#666253"/><stop offset="1" stop-color="#615d4d"/></radialGradient><radialGradient id="radial-gradient-16" cx="-141.77" cy="-211.75" r="14.07" xlink:href="#radial-gradient-2"/><radialGradient id="radial-gradient-17" cx="-148.84" cy="-210.47" r="11.69" xlink:href="#radial-gradient-3"/><radialGradient id="radial-gradient-18" cx="-140.09" cy="-210.62" r="12.92" xlink:href="#radial-gradient-3"/><radialGradient id="radial-gradient-19" cx="-146.9" cy="-215.89" r="9.92" xlink:href="#radial-gradient-3"/><radialGradient id="radial-gradient-20" cx="-145.38" cy="-203.61" r="16.5" xlink:href="#radial-gradient-3"/><radialGradient id="radial-gradient-21" cx="-120.43" cy="-213.56" r="30.24" gradientTransform="matrix(0.83, 0.55, -0.55, 0.83, 49.48, 271.59)" gradientUnits="userSpaceOnUse"><stop offset="0.84"/><stop offset="0.86" stop-color="#040506"/><stop offset="0.88" stop-color="#0f1216"/><stop offset="0.91" stop-color="#202731"/><stop offset="0.93" stop-color="#394556"/><stop offset="0.96" stop-color="#596b87"/><stop offset="0.99" stop-color="#7f99c1"/><stop offset="1" stop-color="#89a5cf"/></radialGradient><linearGradient id="linear-gradient-23" x1="-125.19" y1="-153.52" x2="-107.35" y2="-153.52" xlink:href="#linear-gradient"/><linearGradient id="linear-gradient-24" x1="-124.5" y1="-153.54" x2="-109.76" y2="-153.54" xlink:href="#linear-gradient-2"/><radialGradient id="radial-gradient-22" cx="-110.65" cy="-158.45" r="16.04" xlink:href="#radial-gradient"/><linearGradient id="linear-gradient-25" x1="-125.19" y1="-155.3" x2="-107.35" y2="-155.3" xlink:href="#linear-gradient-3"/><linearGradient id="linear-gradient-26" x1="-127.96" y1="-159.93" x2="-104.58" y2="-159.93" xlink:href="#linear-gradient"/><linearGradient id="linear-gradient-27" x1="-127.05" y1="-159.96" x2="-107.74" y2="-159.96" xlink:href="#linear-gradient-3"/><linearGradient id="linear-gradient-28" x1="-129" y1="-159.66" x2="-103.54" y2="-159.66" xlink:href="#linear-gradient-6"/><radialGradient id="radial-gradient-23" cx="-121.78" cy="-163.51" r="7.71" xlink:href="#radial-gradient-2"/><radialGradient id="radial-gradient-24" cx="-123.56" cy="-161.56" r="9.96" xlink:href="#radial-gradient-3"/><radialGradient id="radial-gradient-25" cx="-114.43" cy="-161.32" r="7.32" xlink:href="#radial-gradient-3"/><radialGradient id="radial-gradient-26" cx="-115.19" cy="-165.73" r="12.77" xlink:href="#radial-gradient-2"/><linearGradient id="linear-gradient-29" x1="-129.25" y1="-169.52" x2="-103.29" y2="-169.52" xlink:href="#linear-gradient-7"/><linearGradient id="linear-gradient-30" x1="-129.25" y1="-171.34" x2="-128.02" y2="-171.34" xlink:href="#linear-gradient-8"/><radialGradient id="radial-gradient-27" cx="-124.84" cy="-171.87" r="28.04" xlink:href="#radial-gradient-3"/><radialGradient id="radial-gradient-28" cx="-120.36" cy="-160.08" r="17.61" xlink:href="#radial-gradient-3"/><linearGradient id="linear-gradient-31" x1="-105.48" y1="-170.93" x2="-103.29" y2="-170.93" xlink:href="#linear-gradient-9"/><linearGradient id="linear-gradient-32" x1="-130.55" y1="-182.3" x2="-101.99" y2="-182.3" xlink:href="#linear-gradient-10"/><linearGradient id="linear-gradient-33" x1="-130.55" y1="-184.3" x2="-129.19" y2="-184.3" xlink:href="#linear-gradient-11"/><radialGradient id="radial-gradient-29" cx="-134.45" cy="-199.43" r="34.6" xlink:href="#radial-gradient-8"/><radialGradient id="radial-gradient-30" cx="-121.84" cy="-198.36" r="30.74" xlink:href="#radial-gradient-8"/><linearGradient id="linear-gradient-34" x1="-104.4" y1="-183.85" x2="-101.99" y2="-183.85" xlink:href="#linear-gradient-12"/><linearGradient id="linear-gradient-35" x1="-130.46" y1="-194.13" x2="-102.18" y2="-194.13" gradientTransform="matrix(0.83, 0.55, -0.55, 0.83, 49.48, 271.59)" xlink:href="#radial-gradient-8"/><linearGradient id="linear-gradient-36" x1="-120.97" y1="-185.07" x2="-112.78" y2="-201.21" xlink:href="#linear-gradient-14"/><linearGradient id="linear-gradient-37" x1="-129.19" y1="-194.92" x2="-103.36" y2="-194.92" xlink:href="#linear-gradient-7"/><linearGradient id="linear-gradient-38" x1="-129.19" y1="-196.63" x2="-127.96" y2="-196.63" xlink:href="#linear-gradient-8"/><linearGradient id="linear-gradient-39" x1="-105.71" y1="-196.25" x2="-103.36" y2="-196.25" xlink:href="#linear-gradient-9"/><linearGradient id="linear-gradient-40" x1="-116.27" y1="-206.77" x2="-116.27" y2="-212.2" xlink:href="#linear-gradient-18"/><radialGradient id="radial-gradient-31" cx="-122.51" cy="-206.5" r="18.85" xlink:href="#radial-gradient-10"/><radialGradient id="radial-gradient-32" cx="-114.19" cy="-205.36" r="18.68" xlink:href="#radial-gradient-11"/><radialGradient id="radial-gradient-33" cx="-120.61" cy="-204.03" r="21.4" xlink:href="#radial-gradient-11"/><radialGradient id="radial-gradient-34" cx="-115.31" cy="-205.01" r="38.46" gradientTransform="matrix(0.83, 0.55, -0.55, 0.83, 49.48, 271.59)" gradientUnits="userSpaceOnUse"><stop offset="0" stop-color="#89a5cf"/><stop offset="0.02" stop-color="#7f99c1"/><stop offset="0.1" stop-color="#596b87"/><stop offset="0.18" stop-color="#394556"/><stop offset="0.25" stop-color="#202731"/><stop offset="0.32" stop-color="#0f1216"/><stop offset="0.38" stop-color="#040506"/><stop offset="0.43"/></radialGradient><radialGradient id="radial-gradient-35" cx="-124.66" cy="-203.73" r="23.9" xlink:href="#radial-gradient-14"/><linearGradient id="linear-gradient-41" x1="-129.19" y1="-201.44" x2="-103.36" y2="-201.44" xlink:href="#linear-gradient-19"/><linearGradient id="linear-gradient-42" x1="-107.05" y1="-196.77" x2="-107.21" y2="-206.03" xlink:href="#linear-gradient-20"/><linearGradient id="linear-gradient-43" x1="-125.32" y1="-206.73" x2="-125.49" y2="-197.48" xlink:href="#linear-gradient-20"/><linearGradient id="linear-gradient-44" x1="-122.01" y1="-201.72" x2="-110.54" y2="-201.72" xlink:href="#linear-gradient-22"/><radialGradient id="radial-gradient-36" cx="-127.76" cy="-198.23" r="28.63" xlink:href="#radial-gradient-2"/><radialGradient id="radial-gradient-37" cx="-114.31" cy="-199.09" r="18.05" xlink:href="#radial-gradient-2"/><radialGradient id="radial-gradient-38" cx="-123.73" cy="-197.38" r="16.33" xlink:href="#radial-gradient-3"/><radialGradient id="radial-gradient-39" cx="-116.11" cy="-194.91" r="12.55" xlink:href="#radial-gradient-3"/><radialGradient id="radial-gradient-40" cx="-121.97" cy="-202.34" r="10.88" xlink:href="#radial-gradient-3"/><radialGradient id="radial-gradient-41" cx="-115.71" cy="-194.18" r="8.66" xlink:href="#radial-gradient-3"/><linearGradient id="linear-gradient-45" x1="-112.55" y1="-180.36" x2="-103.57" y2="-180.36" gradientTransform="matrix(0.83, 0.55, -0.55, 0.83, 49.48, 271.59)" xlink:href="#radial-gradient-8"/><linearGradient id="linear-gradient-46" x1="-115.06" y1="-184.57" x2="-99.52" y2="-175.79" gradientTransform="matrix(0.83, 0.55, -0.55, 0.83, 49.48, 271.59)" gradientUnits="userSpaceOnUse"><stop offset="0" stop-color="#263440"/><stop offset="1"/></linearGradient><radialGradient id="radial-gradient-42" cx="-96.76" cy="-201.96" r="30.03" xlink:href="#radial-gradient-21"/><radialGradient id="radial-gradient-43" cx="-172.93" cy="-195.25" r="17.42" gradientTransform="matrix(0.83, 0.55, -0.55, 0.83, 49.48, 271.59)" gradientUnits="userSpaceOnUse"><stop offset="0.36" stop-color="#9ebfdb"/><stop offset="0.65" stop-color="#7997b0"/><stop offset="1" stop-color="#496177"/></radialGradient><radialGradient id="radial-gradient-44" cx="-169.67" cy="-192.12" r="12.66" gradientTransform="matrix(0.83, 0.55, -0.55, 0.83, 49.48, 271.59)" gradientUnits="userSpaceOnUse"><stop offset="0.31" stop-color="#bccdeb"/><stop offset="0.45" stop-color="#b4c6e5"/><stop offset="0.66" stop-color="#9fb3d6"/><stop offset="0.91" stop-color="#7c94bd"/><stop offset="1" stop-color="#6e88b3"/></radialGradient><radialGradient id="radial-gradient-45" cx="-179.47" cy="-193.63" r="23.66" xlink:href="#radial-gradient-44"/><radialGradient id="radial-gradient-46" cx="-160.6" cy="-194.52" r="4.91" xlink:href="#radial-gradient-44"/><radialGradient id="radial-gradient-47" cx="-164.92" cy="-183.31" r="6.8" gradientTransform="matrix(0.83, 0.55, -0.55, 0.83, 49.48, 271.59)" gradientUnits="userSpaceOnUse"><stop offset="0" stop-color="#fff"/><stop offset="1"/></radialGradient><radialGradient id="radial-gradient-48" cx="-177.55" cy="-184.52" r="4.02" gradientTransform="matrix(0.83, 0.55, -0.55, 0.83, 49.48, 271.59)" gradientUnits="userSpaceOnUse"><stop offset="0" stop-color="#6e88b3"/><stop offset="0.09" stop-color="#7c94bd"/><stop offset="0.34" stop-color="#9fb3d6"/><stop offset="0.55" stop-color="#b4c6e5"/><stop offset="0.69" stop-color="#bccdeb"/></radialGradient><linearGradient id="linear-gradient-47" x1="-179.32" y1="-185.09" x2="-174.18" y2="-185.09" gradientTransform="matrix(0.83, 0.55, -0.55, 0.83, 49.48, 271.59)" gradientUnits="userSpaceOnUse"><stop offset="0" stop-color="#28343d"/><stop offset="0.09" stop-color="#3a434b"/><stop offset="0.19" stop-color="#454d54"/><stop offset="0.29" stop-color="#495057"/><stop offset="0.52" stop-color="#3d464e"/><stop offset="1" stop-color="#28343d"/></linearGradient><linearGradient id="linear-gradient-48" x1="-179.12" y1="-185.25" x2="-174.78" y2="-185.25" xlink:href="#linear-gradient-2"/><linearGradient id="linear-gradient-49" x1="-179.32" y1="-186.17" x2="-174.22" y2="-186.17" gradientTransform="matrix(0.83, 0.55, -0.55, 0.83, 49.48, 271.59)" gradientUnits="userSpaceOnUse"><stop offset="0" stop-color="#576573"/><stop offset="0.02" stop-color="#556371"/><stop offset="0.68" stop-color="#27313b"/><stop offset="1" stop-color="#151e26"/></linearGradient><linearGradient id="linear-gradient-50" x1="-179.21" y1="-189.84" x2="-175.38" y2="-189.84" xlink:href="#linear-gradient-47"/><radialGradient id="radial-gradient-49" cx="-183.61" cy="-193.53" r="9.98" gradientTransform="matrix(0.83, 0.55, -0.55, 0.83, 49.48, 271.59)" gradientUnits="userSpaceOnUse"><stop offset="0" stop-color="#bae7ff"/><stop offset="0.86" stop-color="#1d1d1b"/></radialGradient><radialGradient id="radial-gradient-50" cx="-182.89" cy="-194.35" r="8.44" xlink:href="#radial-gradient-49"/><radialGradient id="radial-gradient-51" cx="-178.06" cy="-193.14" r="3.65" gradientTransform="matrix(0.83, 0.55, -0.55, 0.83, 49.48, 271.59)" gradientUnits="userSpaceOnUse"><stop offset="0" stop-color="#5e6770"/><stop offset="0.65" stop-color="#313940"/><stop offset="1" stop-color="#1d252b"/></radialGradient><radialGradient id="radial-gradient-52" cx="-178.36" cy="-196.86" r="4.11" xlink:href="#radial-gradient-49"/><radialGradient id="radial-gradient-53" cx="-167.93" cy="-195.48" r="6.73" xlink:href="#radial-gradient-47"/><radialGradient id="radial-gradient-54" cx="-178.93" cy="-196.14" r="3.14" xlink:href="#radial-gradient-49"/><linearGradient id="linear-gradient-51" x1="-152.03" y1="-201.01" x2="-130.56" y2="-201.01" gradientTransform="matrix(0.83, 0.55, -0.55, 0.83, 49.48, 271.59)" gradientUnits="userSpaceOnUse"><stop offset="0" stop-color="#587996"/><stop offset="0.06" stop-color="#7596b3"/><stop offset="0.14" stop-color="#97b7d4"/><stop offset="0.22" stop-color="#b0cfec"/><stop offset="0.29" stop-color="#bfdefa"/><stop offset="0.35" stop-color="#c4e3ff"/><stop offset="0.54" stop-color="#9ebfdb"/><stop offset="0.69" stop-color="#7997b0"/><stop offset="0.88" stop-color="#496177"/><stop offset="1" stop-color="#3d536b"/></linearGradient><radialGradient id="radial-gradient-55" cx="-132.37" cy="-203.37" r="23.45" xlink:href="#radial-gradient-44"/><radialGradient id="radial-gradient-56" cx="-147.16" cy="-214.57" r="23.77" xlink:href="#radial-gradient-44"/><radialGradient id="radial-gradient-57" cx="-132.77" cy="-213.09" r="10.44" xlink:href="#radial-gradient-47"/><radialGradient id="radial-gradient-58" cx="-132.43" cy="-209.54" r="5.57" xlink:href="#radial-gradient-47"/><linearGradient id="linear-gradient-52" x1="-158.12" y1="-182.53" x2="-130.13" y2="-182.53" gradientTransform="matrix(0.83, 0.55, -0.55, 0.83, 49.48, 271.59)" gradientUnits="userSpaceOnUse"><stop offset="0" stop-color="#6978a3"/><stop offset="0.42" stop-color="#90a5b5"/><stop offset="1" stop-color="#6978a3"/></linearGradient><radialGradient id="radial-gradient-59" cx="-129.2" cy="-152.77" r="67.46" gradientTransform="matrix(0.83, 0.55, -0.55, 0.83, 49.48, 271.59)" gradientUnits="userSpaceOnUse"><stop offset="0" stop-color="#536069"/><stop offset="0.34" stop-color="#fff"/></radialGradient><radialGradient id="radial-gradient-60" cx="-187.43" cy="-184.11" r="68.77" gradientTransform="matrix(0.83, 0.55, -0.55, 0.83, 49.48, 271.59)" gradientUnits="userSpaceOnUse"><stop offset="0.39" stop-color="#fcffff"/><stop offset="0.46" stop-color="#f6fafb"/><stop offset="0.56" stop-color="#e6ecf0"/><stop offset="0.66" stop-color="#cbd5df"/><stop offset="0.78" stop-color="#a6b6c6"/><stop offset="0.9" stop-color="#768da6"/><stop offset="1" stop-color="#476587"/></radialGradient><radialGradient id="radial-gradient-61" cx="-66.05" cy="-187.92" r="123.44" xlink:href="#radial-gradient-60"/><radialGradient id="radial-gradient-62" cx="-131.15" cy="-197.44" r="25.58" gradientTransform="matrix(0.83, 0.55, -0.55, 0.83, 49.48, 271.59)" gradientUnits="userSpaceOnUse"><stop offset="0" stop-color="#4b565e"/><stop offset="1" stop-color="#3e4b61"/></radialGradient><radialGradient id="radial-gradient-63" cx="-130.57" cy="-199.28" r="14.62" gradientTransform="matrix(0.83, 0.55, -0.55, 0.83, 49.48, 271.59)" gradientUnits="userSpaceOnUse"><stop offset="0" stop-color="#89a5cf"/><stop offset="0.03" stop-color="#7f99c1"/><stop offset="0.18" stop-color="#596b87"/><stop offset="0.31" stop-color="#394556"/><stop offset="0.44" stop-color="#202731"/><stop offset="0.56" stop-color="#0f1216"/><stop offset="0.67" stop-color="#040506"/><stop offset="0.75"/></radialGradient><radialGradient id="radial-gradient-64" cx="-158.44" cy="-191.64" r="53.41" gradientTransform="matrix(0.83, 0.55, -0.55, 0.83, 49.48, 271.59)" gradientUnits="userSpaceOnUse"><stop offset="0" stop-color="#a85e43"/><stop offset="1" stop-color="#633219"/></radialGradient><radialGradient id="radial-gradient-65" cx="-225.92" cy="-185.67" r="100.03" gradientTransform="matrix(0.83, 0.55, -0.55, 0.83, 49.48, 271.59)" gradientUnits="userSpaceOnUse"><stop offset="0.81" stop-color="#fff"/><stop offset="0.83" stop-color="#faf8f7"/><stop offset="0.85" stop-color="#ede6e2"/><stop offset="0.89" stop-color="#d8c7bf"/><stop offset="0.92" stop-color="#bb9d8e"/><stop offset="0.97" stop-color="#966751"/><stop offset="1" stop-color="#753719"/></radialGradient><radialGradient id="radial-gradient-66" cx="-59.94" cy="-186.57" r="100.03" gradientTransform="matrix(0.83, 0.55, -0.55, 0.83, 49.48, 271.59)" gradientUnits="userSpaceOnUse"><stop offset="0.91" stop-color="#fff"/><stop offset="0.92" stop-color="#faf8f7"/><stop offset="0.93" stop-color="#ede6e2"/><stop offset="0.95" stop-color="#d8c7bf"/><stop offset="0.96" stop-color="#bb9d8e"/><stop offset="0.98" stop-color="#966751"/><stop offset="1" stop-color="#753719"/></radialGradient><linearGradient id="linear-gradient-53" x1="-156.95" y1="-178.61" x2="-134.3" y2="-178.61" gradientTransform="matrix(0.83, 0.55, -0.55, 0.83, 49.48, 271.59)" gradientUnits="userSpaceOnUse"><stop offset="0" stop-color="#fff"/><stop offset="0.07" stop-color="#efe8e5"/><stop offset="0.26" stop-color="#cbb3a8"/><stop offset="0.44" stop-color="#ac8775"/><stop offset="0.61" stop-color="#94644d"/><stop offset="0.77" stop-color="#834b30"/><stop offset="0.9" stop-color="#793c1f"/><stop offset="1" stop-color="#753719"/></linearGradient><linearGradient id="linear-gradient-54" x1="-156.4" y1="-191.48" x2="-138.03" y2="-191.48" gradientTransform="matrix(0.83, 0.55, -0.55, 0.83, 49.48, 271.59)" gradientUnits="userSpaceOnUse"><stop offset="0" stop-color="#f0824f"/><stop offset="1"/></linearGradient><linearGradient id="linear-gradient-55" x1="-156.59" y1="-176.16" x2="-138.29" y2="-176.16" xlink:href="#linear-gradient-54"/><linearGradient id="linear-gradient-56" x1="-154.97" y1="-204.97" x2="-136.86" y2="-204.97" xlink:href="#linear-gradient-54"/><radialGradient id="radial-gradient-67" cx="-22.57" cy="-527.51" r="5.59" gradientTransform="matrix(-0.83, -0.55, -0.31, 0.47, -141.48, 246.46)" xlink:href="#radial-gradient-47"/><radialGradient id="radial-gradient-68" cx="-210.99" cy="-156.17" r="4.39" gradientTransform="translate(80.83 315.7) rotate(45.84)" gradientUnits="userSpaceOnUse"><stop offset="0" stop-color="#3e4d75"/><stop offset="1" stop-color="#fff"/></radialGradient><linearGradient id="linear-gradient-57" x1="-124.9" y1="-181.18" x2="-119.71" y2="-176.7" gradientTransform="matrix(0.83, 0.55, -0.55, 0.83, 49.48, 271.59)" gradientUnits="userSpaceOnUse"><stop offset="0" stop-color="#557aab"/><stop offset="0.02" stop-color="#5e83b4"/><stop offset="0.11" stop-color="#80a3d3"/><stop offset="0.2" stop-color="#99baea"/><stop offset="0.27" stop-color="#a8c8f8"/><stop offset="0.34" stop-color="#adcdfd"/><stop offset="0.64" stop-color="#506e9c"/><stop offset="0.84" stop-color="#7a9aca"/><stop offset="1" stop-color="#4a6897"/></linearGradient><linearGradient id="linear-gradient-58" x1="-125.37" y1="-182.47" x2="-120.75" y2="-176.07" gradientTransform="matrix(0.83, 0.55, -0.55, 0.83, 49.48, 271.59)" gradientUnits="userSpaceOnUse"><stop offset="0" stop-color="#d6eeff"/><stop offset="1" stop-color="#3e4d75"/></linearGradient><radialGradient id="radial-gradient-69" cx="-123.64" cy="-180.85" r="6.16" gradientTransform="matrix(0.83, 0.55, -0.55, 0.83, 49.48, 271.59)" gradientUnits="userSpaceOnUse"><stop offset="0.04" stop-color="#f2f7ff"/><stop offset="1" stop-color="#1d1d1b"/></radialGradient><radialGradient id="radial-gradient-70" cx="-132.54" cy="-173.86" r="17.09" xlink:href="#radial-gradient-43"/><radialGradient id="radial-gradient-71" cx="-125.33" cy="-170.57" r="18.39" xlink:href="#radial-gradient-44"/><radialGradient id="radial-gradient-72" cx="-125.07" cy="-173.96" r="17.85" xlink:href="#radial-gradient-44"/><radialGradient id="radial-gradient-73" cx="-139.58" cy="-165.87" r="6.23" xlink:href="#radial-gradient-48"/><radialGradient id="radial-gradient-74" cx="-129.02" cy="-175.68" r="7.57" xlink:href="#radial-gradient-47"/><radialGradient id="radial-gradient-75" cx="-132.18" cy="-166.3" r="5.7" xlink:href="#radial-gradient-47"/><radialGradient id="radial-gradient-76" cx="-129.25" cy="-174.75" r="4.67" xlink:href="#radial-gradient-47"/><linearGradient id="linear-gradient-59" x1="-140.94" y1="-164.58" x2="-135.64" y2="-164.58" xlink:href="#linear-gradient-47"/><linearGradient id="linear-gradient-60" x1="-140.74" y1="-164.76" x2="-136.25" y2="-164.76" xlink:href="#linear-gradient-2"/><linearGradient id="linear-gradient-61" x1="-140.94" y1="-165.76" x2="-135.64" y2="-165.76" xlink:href="#linear-gradient-49"/><linearGradient id="linear-gradient-62" x1="-140.52" y1="-169.62" x2="-136.66" y2="-169.62" xlink:href="#linear-gradient-47"/><radialGradient id="radial-gradient-77" cx="-141.95" cy="-172.23" r="6.77" xlink:href="#radial-gradient-49"/><radialGradient id="radial-gradient-78" cx="-143.37" cy="-174.24" r="9.18" xlink:href="#radial-gradient-49"/><radialGradient id="radial-gradient-79" cx="-139.1" cy="-173.17" r="3.56" xlink:href="#radial-gradient-51"/><radialGradient id="radial-gradient-80" cx="-139.3" cy="-175.97" r="3.99" xlink:href="#radial-gradient-49"/><radialGradient id="radial-gradient-81" cx="-139.41" cy="-176.47" r="3.11" xlink:href="#radial-gradient-49"/><radialGradient id="radial-gradient-82" cx="23.13" cy="35.03" r="25.45" gradientUnits="userSpaceOnUse"><stop offset="0.68"/><stop offset="0.71" stop-color="#080605"/><stop offset="0.77" stop-color="#1d1714"/><stop offset="0.83" stop-color="#40332c"/><stop offset="0.91" stop-color="#71594e"/><stop offset="0.99" stop-color="#ae8a79"/><stop offset="1" stop-color="#b38e7c"/></radialGradient><radialGradient id="radial-gradient-83" cx="16.37" cy="44.41" r="22.93" xlink:href="#radial-gradient-82"/><radialGradient id="radial-gradient-84" cx="5.81" cy="57.74" r="25.15" xlink:href="#radial-gradient-82"/></defs><g class="cls-1"><g id="Layer_2" data-name="Layer 2"><g id="Layer_1-2" data-name="Layer 1"><path class="cls-2" d="M19.29,45l7.07,4.67,7.07,4.67c-.61.74-1.3,1.5-2,2.23s-1.38,1.42-2,2a4.32,4.32,0,0,1-3.53.79,12.35,12.35,0,0,1-8.27-5.46,4.26,4.26,0,0,1-.66-3.55c.31-.85.68-1.77,1.07-2.68s.84-1.86,1.28-2.71Z"/><path class="cls-3" d="M19.51,45.81,25.16,50l5.63,4.16c-.49.61-1,1.24-1.6,1.84s-1.12,1.17-1.66,1.68a3.26,3.26,0,0,1-2.85.59,9.4,9.4,0,0,1-3.8-1.73A10,10,0,0,1,18,53.35a3.8,3.8,0,0,1-.48-3.05c.26-.72.57-1.48.9-2.25s.7-1.54,1.07-2.24Z"/><path class="cls-4" d="M20.3,53.15c1.14,1.51,2.21,2.74,1.92,3.19s-1.78-.28-3-1.7-1.73-3-1.45-3.49,1.39.49,2.53,2Z"/><path class="cls-5" d="M18.18,47.27c.4,2.36,2.2,5.15,4.89,7.33,2.51,2,5.24,3.09,7.33,3,.35-.35.7-.7,1-1.07.69-.73,1.38-1.49,2-2.23l-7.07-4.67L19.29,45c-.38.74-.76,1.53-1.11,2.32Z"/><path class="cls-6" d="M21.26,37.19l9.26,6.12,9.27,6.12c-.8,1-1.7,2-2.61,2.93S35.37,54.22,34.51,55a5.6,5.6,0,0,1-4.62,1A16.22,16.22,0,0,1,19,48.91a5.63,5.63,0,0,1-.86-4.66c.41-1.11.88-2.31,1.4-3.51s1.1-2.43,1.68-3.55Z"/><path class="cls-7" d="M21.55,38.31,29,43.79q3.71,2.72,7.38,5.45c-.65.8-1.37,1.62-2.1,2.41s-1.47,1.53-2.17,2.2a4.32,4.32,0,0,1-3.74.77,12.21,12.21,0,0,1-5-2.26,13,13,0,0,1-3.75-4.17,5,5,0,0,1-.64-4c.34-.93.75-1.94,1.19-2.94s.92-2,1.4-2.95Z"/><path class="cls-8" d="M19.8,40.24c.52,3.09,2.89,6.74,6.42,9.6,3.28,2.66,6.85,4,9.6,3.91.46-.45.91-.92,1.36-1.39.91-1,1.81-2,2.61-2.93l-9.27-6.12-9.26-6.12c-.5,1-1,2-1.46,3.05Z"/><path class="cls-9" d="M39.19,52.15l-10.1-6.67L19,38.82A18.4,18.4,0,0,0,18.17,43c0,2.6,2.59,6.21,6.69,8.92s8.45,3.68,10.83,2.65a18.51,18.51,0,0,0,3.5-2.39Z"/><path class="cls-10" d="M18.25,43.8c.27-1,.53-2.1.8-3.15l0-.16a4.48,4.48,0,0,1,0-1.67A18.4,18.4,0,0,0,18.17,43a4.85,4.85,0,0,0,.08.83Z"/><path class="cls-11" d="M20.7,44.16l-1,2.82a17.89,17.89,0,0,0,3.56,3.73l1.47-2.41a20.15,20.15,0,0,1-4-4.14Z"/><path class="cls-12" d="M30.14,51.55l-2,2.13a18.53,18.53,0,0,0,1.82.68l2.19-2.06a18,18,0,0,1-2-.75Z"/><path class="cls-13" d="M39.19,52.15a5.28,5.28,0,0,1-2.74.79l-2.55,2a5.36,5.36,0,0,0,1.79-.39,18.51,18.51,0,0,0,3.5-2.39Z"/><path class="cls-14" d="M32.7,39.6c5.5,3.63,8.46,8.82,6.62,11.6s-7.77,2.1-13.27-1.53-8.45-8.82-6.62-11.6S27.21,36,32.7,39.6Z"/><path class="cls-15" d="M40,51.28c-1.84,2.79-7.94,2-13.62-1.75s-8.8-9.05-7-11.84L27.57,25.4,48.16,39,40,51.28Z"/><path class="cls-16" d="M19,40.49,28.55,26l-1-.64L19.46,37.69a3.71,3.71,0,0,0-.44,2.8Z"/><path class="cls-17" d="M31.42,27.94,20.7,44.16a20.15,20.15,0,0,0,4,4.14L36.11,31l-4.69-3.09Z"/><path class="cls-18" d="M41.38,34.52l-11.24,17a18,18,0,0,0,2,.75l11-16.62-1.76-1.16Z"/><path class="cls-19" d="M46.42,37.84l-10,15.1A4.32,4.32,0,0,0,40,51.28L48.16,39l-1.74-1.15Z"/><path class="cls-20" d="M47.52,42.19c-2,3.07-8.73,2.21-15-1.92s-9.68-10-7.66-13L33.8,13.72l22.65,15L47.52,42.19Z"/><path class="cls-21" d="M24.39,30.32,33.32,16.8a4.09,4.09,0,0,1,.48-3.08L24.87,27.24a4.14,4.14,0,0,0-.48,3.08Z"/><path class="cls-22" d="M35.18,20.84,26.25,34.36a22.25,22.25,0,0,0,4.4,4.55l8.93-13.52a22.25,22.25,0,0,1-4.4-4.55Z"/><path class="cls-23" d="M45.55,29,36.62,42.49a22.83,22.83,0,0,0,2.24.83l8.93-13.53A22.7,22.7,0,0,1,45.55,29Z"/><path class="cls-24" d="M52.5,30.49,43.57,44a4.75,4.75,0,0,0,4-1.83l8.93-13.52a4.74,4.74,0,0,1-4,1.82Z"/><path class="cls-25" d="M48.68,15.73c6.2,4.09,9.56,9.91,7.52,13S47.48,31,41.29,26.93s-9.56-9.91-7.52-13,8.72-2.29,14.91,1.8Z"/><path class="cls-26" d="M48.79,15.64c6.25,4.13,9.68,10,7.66,13s-8.73,2.2-15-1.93-9.68-10-7.66-13,8.74-2.2,15,1.92Z"/><path class="cls-27" d="M55.36,28c-1.73,2.61-7.71,1.71-13.37-2s-8.84-8.88-7.11-11.49l3.76-5.71L59.13,22.26,55.36,28Z"/><path class="cls-28" d="M34.52,17.11l5.1-7.72-1-.65-3.76,5.71a3.39,3.39,0,0,0-.36,2.66Z"/><path class="cls-29" d="M57.26,21l-.34.53.13.09-5.16,7.81A4,4,0,0,0,55.36,28l3.77-5.71L57.26,21Z"/><path class="cls-30" d="M42.9,5.56l0,0h0c1.47-2.23,6.58-1.45,11.4,1.73s7.54,7.58,6.07,9.81l0,0h0l.5.33h0a3.23,3.23,0,0,0,.25-.49c.92-2.49-1.88-6.76-6.65-9.91S44.69,3,42.77,4.8a2.18,2.18,0,0,0-.34.4l0,0,.49.33Z"/><path class="cls-31" d="M57.21.5A13.46,13.46,0,0,0,46.33,2.25a13.11,13.11,0,0,0-3.85,3.92l-3.71,5.62C40.12,16.54,51.38,24,56.28,23.34L60,17.73a13.35,13.35,0,0,0,2.1-5.08A13.49,13.49,0,0,0,59.41,2a4.86,4.86,0,0,0-1-.88A4.74,4.74,0,0,0,57.21.5Z"/><path class="cls-32" d="M42.48,6.17l-3.71,5.62a6.17,6.17,0,0,0,.6,1.34l4.14-6.28a14.88,14.88,0,0,1,3.74-4C50.13.8,54.2-.33,57.34.58a4,4,0,0,1,1.07.49A4.74,4.74,0,0,0,57.21.5,13.46,13.46,0,0,0,46.33,2.25a13.11,13.11,0,0,0-3.85,3.92Z"/><path class="cls-33" d="M58,16.44l-4.4,6.66a7.41,7.41,0,0,0,2.64.24L60,17.73a13.35,13.35,0,0,0,2.1-5.08A13.49,13.49,0,0,0,59.41,2a4.86,4.86,0,0,0-1-.88,3.22,3.22,0,0,1,.76.72c1.76,2.33,2,6.33,1.16,9.7a16.89,16.89,0,0,1-2.29,5Z"/><path class="cls-34" d="M54.73,14.26l-4.89,7.41c.66.32,1.32.61,1.95.85l4.69-7.1a21.46,21.46,0,0,0,2.45-4.85c1.1-3.24,1.28-6.93,0-8.91a1.87,1.87,0,0,0-.56-.59.89.89,0,0,1,.34.45c.65,1.59,0,4.93-1.4,8a31.22,31.22,0,0,1-2.62,4.73Z"/><path class="cls-35" d="M44.48,18.37l5-7.58c1.13-1.71,2.17-3.15,3.15-4.38C54.69,3.8,57,1.5,58.09,1.08a.36.36,0,0,1,.32,0A2.57,2.57,0,0,0,57.5.69c-2.7-.62-6.37.76-9.07,2.94a17.65,17.65,0,0,0-3.62,4.08q-2.23,3.41-4.48,6.79a23.69,23.69,0,0,0,4.15,3.87Z"/><path class="cls-36" d="M45.76,20.24c-5.66-3.74-8.84-8.88-7.12-11.5a2.69,2.69,0,0,1,.44-.51L42.77,4.8h0a2.05,2.05,0,0,0-.36.42,3.06,3.06,0,0,0-.36,2.3,1.33,1.33,0,0,1-.37,1.19l-2,2.13a1.34,1.34,0,0,0-.27,1.46,10.69,10.69,0,0,0,1.49,2.46.8.8,0,0,0,1.21.07l2.06-2.07a.76.76,0,0,1,.57-.24.78.78,0,0,1,.58.24,22.47,22.47,0,0,0,3.52,2.87,22.1,22.1,0,0,0,4,2.11.82.82,0,0,1,.44.44.79.79,0,0,1,0,.62l-1.1,2.7a.78.78,0,0,0,0,.67.76.76,0,0,0,.52.42,10.7,10.7,0,0,0,2.85.41,1.34,1.34,0,0,0,1.23-.83L58,19.46a1.32,1.32,0,0,1,.95-.8,3.08,3.08,0,0,0,2-1.23,2.65,2.65,0,0,0,.26-.5h0l-1.71,4.73a2.56,2.56,0,0,1-.29.6c-1.73,2.62-7.72,1.71-13.37-2Z"/><path class="cls-37" d="M60.37,17.1a2.91,2.91,0,0,1-1.82,1.11l-.12,0c-.45.12-.79.42-1.08,1.13l-1,2.24c-.25.6-.46.85-.81.93A8.57,8.57,0,0,1,52.13,22a1.07,1.07,0,0,0,.07.19.76.76,0,0,0,.52.42,10.7,10.7,0,0,0,2.85.41,1.34,1.34,0,0,0,1.23-.83L58,19.46a1.32,1.32,0,0,1,.95-.8,3.08,3.08,0,0,0,2-1.23l-.5-.33Z"/><path class="cls-38" d="M40.33,11,42,9.24a1.61,1.61,0,0,0,.61-1.44.69.69,0,0,0,0-.13,2.92,2.92,0,0,1,.3-2.11l-.49-.33a3.06,3.06,0,0,0-.36,2.3,1.33,1.33,0,0,1-.37,1.19l-2,2.13a1.34,1.34,0,0,0-.27,1.46,10.69,10.69,0,0,0,1.49,2.46.81.81,0,0,0,.59.31h.2a8.64,8.64,0,0,1-1.85-3c-.07-.35.09-.65.54-1.11Z"/><path class="cls-39" d="M45.27,12.77a22.47,22.47,0,0,0,3.52,2.87,21.41,21.41,0,0,0,4,2.11.84.84,0,0,1,.49.95,1.26,1.26,0,0,0-.07-1,1.2,1.2,0,0,0-.47-.35h0a21.16,21.16,0,0,1-3.77-2,21.79,21.79,0,0,1-3.32-2.68h0a1,1,0,0,0-.5-.3,1.22,1.22,0,0,0-1,.34.81.81,0,0,1,.48-.16.78.78,0,0,1,.58.24Z"/><path class="cls-40" d="M58,19.45,56.8,22.18a1.29,1.29,0,0,1-.78.74c-.11.28-.23.55-.34.83a4,4,0,0,0,3.45-1.49,2.85,2.85,0,0,0,.28-.55l1.72-4.79a3.33,3.33,0,0,1-.25.5,3.09,3.09,0,0,1-2,1.23,1.31,1.31,0,0,0-.95.8Z"/><path class="cls-41" d="M38.28,11.41l3.78-3.76a.77.77,0,0,0,0-.15,3.08,3.08,0,0,1,.36-2.29,2.49,2.49,0,0,1,.36-.43L39.08,8.2l0,.05a2.44,2.44,0,0,0-.39.46,3.49,3.49,0,0,0-.36,2.7Z"/><path class="cls-42" d="M44.05,19A21.29,21.29,0,0,1,40,15l-3.77,5.7a20.83,20.83,0,0,0,4,4.06L44.05,19Z"/><path class="cls-43" d="M49.45,22.27,45.68,28a20.92,20.92,0,0,0,2,.77L51.45,23c-.65-.22-1.32-.47-2-.77Z"/><path class="cls-44" d="M45.27,12.77a.85.85,0,0,0-.45-.23h-.13a.67.67,0,0,0-.24,0h0a1,1,0,0,0-.23.12l-.09.08-2.06,2.07a.8.8,0,0,1-.42.23h-.2a.81.81,0,0,1-.59-.31c-.12-.15-.23-.3-.33-.44l-.16.21L40,15a21.29,21.29,0,0,0,4,4.05l.43-.64,2.62-4L46.57,14c-.46-.4-.9-.8-1.3-1.21Z"/><path class="cls-45" d="M52.39,17.81l-2.55,3.86-.39.6c.68.3,1.35.55,2,.77l.31-.54.36-.61a.73.73,0,0,1,.05-.38l1.1-2.7s0-.07,0-.11h0a1.06,1.06,0,0,0,0-.25.2.2,0,0,1,0-.07.64.64,0,0,0-.06-.18.47.47,0,0,0,0-.1.75.75,0,0,0-.36-.32l0,0-.31-.12-.12.18Z"/><path class="cls-46" d="M51.29,3c.57.42-.41,2.22-2,4.34S46.37,11,45.09,10.19,45,7.63,46.69,5.6s4-3,4.6-2.61Z"/><path class="cls-47" d="M32.33,70.36l7.44,4.91,7.44,4.91c-.65.78-1.36,1.59-2.09,2.36S43.66,84,43,84.69a4.57,4.57,0,0,1-3.71.83,13.05,13.05,0,0,1-8.71-5.75,4.54,4.54,0,0,1-.7-3.74c.33-.89.71-1.86,1.13-2.82s.88-1.95,1.35-2.85Z"/><path class="cls-48" d="M32.56,71.26l5.95,4.4L44.43,80c-.52.65-1.1,1.3-1.69,1.94S41.56,83.2,41,83.74a3.44,3.44,0,0,1-3,.61,9.68,9.68,0,0,1-4-1.81,10.59,10.59,0,0,1-3-3.34A4,4,0,0,1,30.48,76c.28-.75.6-1.56.95-2.36s.74-1.63,1.13-2.37Z"/><path class="cls-49" d="M33.39,79c1.2,1.59,2.33,2.89,2,3.36s-1.87-.29-3.16-1.79-1.82-3.19-1.52-3.68,1.46.52,2.66,2.11Z"/><path class="cls-50" d="M31.16,72.81c.42,2.48,2.32,5.41,5.15,7.71,2.63,2.13,5.51,3.25,7.71,3.14.37-.36.73-.74,1.1-1.12.73-.77,1.44-1.58,2.09-2.36l-7.44-4.91-7.44-4.91c-.4.77-.8,1.61-1.17,2.45Z"/><path class="cls-51" d="M34.4,62.19l9.75,6.44,9.76,6.44c-.85,1-1.79,2.08-2.75,3.09s-1.91,2-2.82,2.81c-1.07,1-2.83,1.35-4.86,1.09a17.11,17.11,0,0,1-11.41-7.54c-1-1.76-1.42-3.51-.91-4.89.43-1.18.93-2.44,1.48-3.7s1.15-2.56,1.76-3.74Z"/><path class="cls-52" d="M34.71,63.37l7.79,5.77,7.76,5.73c-.68.84-1.44,1.71-2.21,2.54S46.5,79,45.77,79.73a4.52,4.52,0,0,1-3.93.8,12.64,12.64,0,0,1-5.24-2.37,13.65,13.65,0,0,1-4-4.39,5.3,5.3,0,0,1-.67-4.2c.36-1,.79-2,1.25-3.09s1-2.13,1.48-3.11Z"/><path class="cls-8" d="M32.87,65.4c.55,3.25,3,7.1,6.75,10.1,3.45,2.8,7.22,4.27,10.11,4.13l1.43-1.47c1-1,1.9-2.07,2.75-3.09l-9.76-6.44L34.4,62.19c-.53,1-1,2.11-1.53,3.21Z"/><path class="cls-53" d="M53.27,77.93l-10.63-7L32,63.91a19.13,19.13,0,0,0-.87,4.37c0,2.73,2.73,6.53,7,9.38s8.89,3.88,11.4,2.79a19.19,19.19,0,0,0,3.68-2.52Z"/><path class="cls-54" d="M31.23,69.15l.84-3.31,0-.17a4.55,4.55,0,0,1,0-1.76,19.13,19.13,0,0,0-.87,4.37,5.31,5.31,0,0,0,.08.87Z"/><path class="cls-55" d="M33.82,69.53l-1.08,3a18.49,18.49,0,0,0,3.75,3.92L38,73.88a20.63,20.63,0,0,1-4.21-4.35Z"/><path class="cls-56" d="M43.74,77.31l-2.07,2.24a17.75,17.75,0,0,0,1.9.71l2.31-2.16a20.8,20.8,0,0,1-2.14-.79Z"/><path class="cls-57" d="M53.27,77.93a5.47,5.47,0,0,1-2.88.84L47.7,80.86a5.65,5.65,0,0,0,1.89-.41,19.19,19.19,0,0,0,3.68-2.52Z"/><path class="cls-14" d="M46.44,64.73c5.79,3.82,8.91,9.28,7,12.21s-8.18,2.21-14-1.61-8.91-9.28-7-12.21,8.18-2.21,14,1.61Z"/><path class="cls-58" d="M54.17,77c-1.94,2.94-8.36,2.11-14.34-1.84s-9.26-9.53-7.33-12.46L41,49.78,62.71,64.09,54.17,77Z"/><path class="cls-59" d="M32,65.67l10-15.21-1-.68L32.5,62.72a3.94,3.94,0,0,0-.46,3Z"/><path class="cls-60" d="M45.09,52.45,33.82,69.53A20.63,20.63,0,0,0,38,73.88L50,55.71l-4.94-3.26Z"/><path class="cls-61" d="M55.58,59.38,43.74,77.31a20.8,20.8,0,0,0,2.14.79L57.43,60.6l-1.85-1.22Z"/><path class="cls-62" d="M60.88,62.88,50.39,78.77A4.54,4.54,0,0,0,54.17,77l8.54-12.93-1.83-1.21Z"/><path class="cls-63" d="M62,67.46c-2.13,3.23-9.19,2.32-15.77-2S36.08,55,38.21,51.72L47.6,37.49,71.44,53.23,62,67.46Z"/><path class="cls-64" d="M37.7,55l9.39-14.23a4.3,4.3,0,0,1,.51-3.24L38.21,51.72A4.31,4.31,0,0,0,37.7,55Z"/><path class="cls-65" d="M49.05,45l-9.4,14.23A23.09,23.09,0,0,0,44.29,64l9.39-14.23A23,23,0,0,1,49.05,45Z"/><path class="cls-66" d="M60,53.54l-9.4,14.23a21.22,21.22,0,0,0,2.35.87l9.4-14.23c-.77-.24-1.55-.53-2.35-.87Z"/><path class="cls-67" d="M67.28,55.15l-9.4,14.23A5,5,0,0,0,62,67.46l9.4-14.23a5,5,0,0,1-4.16,1.92Z"/><path class="cls-68" d="M63.26,39.6C69.78,43.91,73.32,50,71.17,53.29S62,55.7,55.48,51.39,45.42,41,47.57,37.71s9.18-2.41,15.69,1.89Z"/><path class="cls-69" d="M63.38,39.52C70,43.86,73.57,50,71.44,53.23s-9.19,2.31-15.78-2S45.47,40.72,47.6,37.49s9.19-2.32,15.78,2Z"/><path class="cls-70" d="M70.29,52.49c-1.82,2.75-8.12,1.8-14.07-2.13S46.91,41,48.73,38.25l4-6L74.25,46.48l-4,6Z"/><path class="cls-71" d="M48.36,41.06Q51,37,53.72,32.93l-1-.68-4,6a3.59,3.59,0,0,0-.37,2.81Z"/><path class="cls-72" d="M72.29,45.19l-.36.55.14.09-5.43,8.23a4.28,4.28,0,0,0,3.65-1.57l4-6-2-1.29Z"/><path class="cls-73" d="M57.18,28.91l0-.05h0c1.55-2.34,6.92-1.53,12,1.82s7.94,8,6.39,10.32l0,0h0l.52.35h0a2.81,2.81,0,0,0,.26-.52c1-2.62-2-7.11-7-10.42S59.06,26.18,57,28.11a2.35,2.35,0,0,0-.36.41l0,0,.52.35Z"/><path class="cls-74" d="M72.24,23.57c-3.68-1.2-8.28-.23-11.46,1.85a14,14,0,0,0-4.05,4.13l-3.9,5.91c1.42,5,13.27,12.81,18.42,12.16l3.91-5.91a14,14,0,0,0,2.2-5.35c.66-3.74-.26-8.35-2.8-11.25a4.85,4.85,0,0,0-1.06-.93,5.45,5.45,0,0,0-1.26-.61Z"/><path class="cls-75" d="M56.73,29.55l-3.9,5.91a6.14,6.14,0,0,0,.63,1.41q2.17-3.32,4.36-6.61a15.53,15.53,0,0,1,3.94-4.2c3-2.17,7.31-3.36,10.61-2.4a4,4,0,0,1,1.13.52,5.45,5.45,0,0,0-1.26-.61c-3.68-1.2-8.28-.23-11.46,1.85a14,14,0,0,0-4.05,4.13Z"/><path class="cls-76" d="M73.11,40.36l-4.63,7a7.74,7.74,0,0,0,2.77.26l3.91-5.91a14,14,0,0,0,2.2-5.35c.66-3.74-.26-8.35-2.8-11.25a4.85,4.85,0,0,0-1.06-.93,3,3,0,0,1,.8.76c1.85,2.44,2.16,6.65,1.22,10.2a17.79,17.79,0,0,1-2.41,5.22Z"/><path class="cls-77" d="M69.63,38.06l-5.15,7.8c.7.34,1.39.64,2.06.89Q69,43,71.47,39.27a22.66,22.66,0,0,0,2.58-5.1c1.16-3.4,1.35-7.29,0-9.37a1.85,1.85,0,0,0-.59-.62.93.93,0,0,1,.36.47c.68,1.67-.06,5.19-1.47,8.43a33.28,33.28,0,0,1-2.76,5Z"/><path class="cls-78" d="M58.84,42.38l5.26-8c1.2-1.81,2.28-3.31,3.32-4.62,2.17-2.74,4.56-5.16,5.74-5.6.16-.06.27-.06.34,0a2.7,2.7,0,0,0-1-.4c-2.85-.66-6.71.8-9.56,3.1a18.39,18.39,0,0,0-3.8,4.29q-2.36,3.57-4.72,7.14a24.74,24.74,0,0,0,4.37,4.07Z"/><path class="cls-79" d="M60.18,44.35c-6-3.93-9.3-9.35-7.48-12.1a2.63,2.63,0,0,1,.46-.54L57,28.11h0a2.06,2.06,0,0,0-.38.45A3.2,3.2,0,0,0,56.28,31a1.4,1.4,0,0,1-.38,1.26l-2.16,2.24A1.38,1.38,0,0,0,53.45,36,11.27,11.27,0,0,0,55,38.59a.84.84,0,0,0,.62.33.86.86,0,0,0,.66-.25l2.16-2.18a.8.8,0,0,1,.6-.25.82.82,0,0,1,.61.25,22.85,22.85,0,0,0,3.71,3,23.41,23.41,0,0,0,4.23,2.23.79.79,0,0,1,.47.46.78.78,0,0,1,0,.65l-1.15,2.84a.84.84,0,0,0,0,.71.87.87,0,0,0,.55.44,11.47,11.47,0,0,0,3,.43,1.39,1.39,0,0,0,1.29-.87L73,43.53a1.36,1.36,0,0,1,1-.84,3.22,3.22,0,0,0,2.07-1.3,2.4,2.4,0,0,0,.27-.53h0l-1.79,5a2.67,2.67,0,0,1-.32.63c-1.81,2.76-8.11,1.8-14.07-2.13Z"/><path class="cls-80" d="M75.57,41a3,3,0,0,1-1.92,1.17l-.13,0c-.48.12-.83.44-1.14,1.18l-1,2.36c-.26.63-.48.9-.85,1a9.15,9.15,0,0,1-3.64-.56c0,.06,0,.13.07.2a.87.87,0,0,0,.55.44,11.47,11.47,0,0,0,3,.43,1.39,1.39,0,0,0,1.29-.87L73,43.53a1.36,1.36,0,0,1,1-.84,3.24,3.24,0,0,0,2.07-1.3L75.57,41Z"/><path class="cls-81" d="M54.47,34.61l1.77-1.84a1.74,1.74,0,0,0,.65-1.51l0-.13a3,3,0,0,1,.32-2.22l-.52-.35A3.2,3.2,0,0,0,56.28,31a1.4,1.4,0,0,1-.38,1.26l-2.16,2.24A1.38,1.38,0,0,0,53.45,36,11.27,11.27,0,0,0,55,38.59a.84.84,0,0,0,.62.33h.21a9.11,9.11,0,0,1-2-3.13c-.07-.36.09-.67.57-1.17Z"/><path class="cls-82" d="M59.67,36.49a22.85,22.85,0,0,0,3.71,3,23.7,23.7,0,0,0,4.23,2.23.79.79,0,0,1,.47.46.81.81,0,0,1,0,.53,1.3,1.3,0,0,0-.07-1.08,1.21,1.21,0,0,0-.5-.37h0a23.08,23.08,0,0,1-4-2.09,22.4,22.4,0,0,1-3.48-2.83h0a1.17,1.17,0,0,0-.54-.31,1.29,1.29,0,0,0-1,.36.85.85,0,0,1,.51-.17.82.82,0,0,1,.61.25Z"/><path class="cls-83" d="M73,43.53,71.8,46.4a1.38,1.38,0,0,1-.81.78c-.13.29-.25.58-.37.87a4.2,4.2,0,0,0,3.63-1.57,2.89,2.89,0,0,0,.3-.58l1.81-5a2.65,2.65,0,0,1-.27.53A3.22,3.22,0,0,1,74,42.69a1.37,1.37,0,0,0-1,.84Z"/><path class="cls-84" d="M52.32,35.05l4-3.95a.77.77,0,0,0,0-.15A2.86,2.86,0,0,1,57,28.08l-3.88,3.6,0,.05a3.23,3.23,0,0,0-.41.49,3.59,3.59,0,0,0-.37,2.83Z"/><path class="cls-85" d="M58.39,43.06a22.07,22.07,0,0,1-4.23-4.27l-4,6a21.86,21.86,0,0,0,4.24,4.27l4-6Z"/><path class="cls-86" d="M64.07,46.49l-4,6a21.55,21.55,0,0,0,2.11.81l4-6c-.69-.23-1.4-.5-2.11-.81Z"/><path class="cls-87" d="M59.67,36.49a.89.89,0,0,0-.47-.24h-.14a.69.69,0,0,0-.25,0h0a.85.85,0,0,0-.25.13l-.09.08L56.3,38.67a.83.83,0,0,1-.45.24h-.21a.84.84,0,0,1-.62-.33l-.35-.46-.17.22-.34.44a22.07,22.07,0,0,0,4.23,4.27l.45-.68,2.75-4.17L61,37.76c-.49-.41-.95-.84-1.37-1.27Z"/><path class="cls-88" d="M67.16,41.8l-2.68,4.06-.41.63c.71.31,1.42.58,2.11.81l.32-.56.38-.65a.72.72,0,0,1,.06-.4l1.15-2.84a.56.56,0,0,0,0-.12h0a.9.9,0,0,0,0-.28.2.2,0,0,0,0-.07.64.64,0,0,0-.06-.18.37.37,0,0,0,0-.11,1,1,0,0,0-.38-.34h0l-.32-.13-.13.19Z"/><path class="cls-89" d="M54.92,60.15a16.7,16.7,0,0,0,8.53,1.78.87.87,0,0,0,.6-.38l0,0a.36.36,0,0,0,0-.36.34.34,0,0,0-.33-.17,17.17,17.17,0,0,1-8.29-1.86.56.56,0,0,0-.71.21l0,.07a.51.51,0,0,0-.07.43.52.52,0,0,0,.28.32Zm-1.33,2A16.67,16.67,0,0,0,62.11,64a.87.87,0,0,0,.61-.38l0,0a.32.32,0,0,0,0-.36.33.33,0,0,0-.32-.17,17.15,17.15,0,0,1-8.29-1.86.58.58,0,0,0-.72.21l-.05.07a.54.54,0,0,0-.06.43.5.5,0,0,0,.28.32Zm-1.34,2A16.72,16.72,0,0,0,60.78,66a.87.87,0,0,0,.6-.38l0,0a.34.34,0,0,0,0-.36.34.34,0,0,0-.33-.17,17.17,17.17,0,0,1-8.29-1.86.57.57,0,0,0-.71.21l-.05.07a.5.5,0,0,0-.06.43.48.48,0,0,0,.27.32Zm4-6.06a16.67,16.67,0,0,0,8.52,1.78.89.89,0,0,0,.61-.38l0,0a.32.32,0,0,0,0-.36A.33.33,0,0,0,65.1,59a17.15,17.15,0,0,1-8.29-1.86.57.57,0,0,0-.72.21l-.05.07a.52.52,0,0,0,.22.75Z"/><path class="cls-90" d="M55.05,60a16.6,16.6,0,0,0,8.53,1.78.84.84,0,0,0,.6-.38l0,0a.33.33,0,0,0,0-.36.32.32,0,0,0-.32-.17A17.26,17.26,0,0,1,55.6,59a.55.55,0,0,0-.71.2l0,.07a.51.51,0,0,0-.07.43.47.47,0,0,0,.28.32Zm-1.33,2a16.57,16.57,0,0,0,8.52,1.78.83.83,0,0,0,.61-.38l0,0a.32.32,0,0,0,0-.36.33.33,0,0,0-.32-.17A17.24,17.24,0,0,1,54.27,61a.57.57,0,0,0-.72.2l0,.07a.54.54,0,0,0-.06.43.47.47,0,0,0,.28.32Zm-1.34,2a16.6,16.6,0,0,0,8.53,1.78.81.81,0,0,0,.6-.38l0,0a.34.34,0,0,0,0-.36.34.34,0,0,0-.33-.17A17.26,17.26,0,0,1,52.93,63a.56.56,0,0,0-.71.2l0,.07a.51.51,0,0,0-.07.43.5.5,0,0,0,.28.32Zm4-6.06a16.67,16.67,0,0,0,8.52,1.78.82.82,0,0,0,.6-.38l0,0a.34.34,0,0,0-.31-.53,17.28,17.28,0,0,1-8.3-1.85.56.56,0,0,0-.71.2l0,.07a.5.5,0,0,0-.06.43.45.45,0,0,0,.28.32Z"/><path class="cls-91" d="M66,26.2c.61.44-.43,2.34-2.08,4.56s-3.09,3.91-4.44,3-.11-2.7,1.69-4.83S65.4,25.77,66,26.2Z"/><path class="cls-92" d="M5.2,20.85,3.68,23.39,8,23.88a2.84,2.84,0,0,0,1.37-.15,4.1,4.1,0,0,0,1.25-.88l2.3-2.22a7.77,7.77,0,0,1,4.57-2.33,9.41,9.41,0,0,1,4.4.71l4.45,1.67-1.14,3L20.77,22a6.32,6.32,0,0,0-2.9-.52,4.65,4.65,0,0,0-2.7,1.44l-2.3,2.22a7.13,7.13,0,0,1-2.29,1.56,5.88,5.88,0,0,1-2.91.35l-5.19-.58a3.36,3.36,0,0,1-1.34-.42,2.39,2.39,0,0,1-.9-.94A2.26,2.26,0,0,1,0,23.8a3,3,0,0,1,.46-1.29l2-3.31L5.2,20.85Z"/><path class="cls-93" d="M3.68,23.39,2.8,24.86A2.73,2.73,0,0,1,5.42,24l2.39.27c1.7.2,2.37-.37,3.51-1.49l2.14-2.09A6.75,6.75,0,0,1,20.8,19l5.46,1.93.1-.26L21.91,19a9.41,9.41,0,0,0-4.4-.71,7.77,7.77,0,0,0-4.57,2.33l-2.3,2.22a4.1,4.1,0,0,1-1.25.88A2.84,2.84,0,0,1,8,23.88l-4.34-.49Z"/><path class="cls-94" d="M.75,23.17l2.14-3.71-.44-.26-2,3.31A3,3,0,0,0,0,23.8a2.26,2.26,0,0,0,.22,1.32,2.39,2.39,0,0,0,.9.94,3.36,3.36,0,0,0,1.34.42l5.19.58a5.88,5.88,0,0,0,2.91-.35,7.13,7.13,0,0,0,2.29-1.56l2.3-2.22a4.65,4.65,0,0,1,2.7-1.44,6.32,6.32,0,0,1,2.9.52l4.45,1.67.17-.45-5.3-2c-2.42-.9-3.77-.1-5.55,1.59l-1.78,1.7c-1.57,1.49-2.69,2.29-4.94,2.09L2.4,26.11A2,2,0,0,1,.75,23.17Z"/><path class="cls-95" d="M24.67,20.05c.38,1.12-1.32,2.71-3.81,2l4.36,1.64,1.14-3-1.69-.63Z"/><path class="cls-96" d="M7.07,24.28l1.06.11a2.81,2.81,0,0,0,2.55-.87l1.24-1c1-.84,2-.06,1,.87l-1.36,1.29a4.23,4.23,0,0,1-3.56,1l-1.32-.13c-1.59-.16-1.76-1.43.39-1.2Z"/><path class="cls-97" d="M4.71,21.68c-.22.37-1,.24-1.69-.3s-1.11-1.27-.89-1.63L2.58,19l2.57,1.94-.44.74Z"/><path class="cls-98" d="M6.19,21c-.36.59-1.62.46-2.82-.27S1.48,19,1.83,18.38l.53-.88,4.36,2.66L6.19,21Z"/><path class="cls-99" d="M5.76,20.59c-.3.49-1.36.39-2.38-.23s-1.6-1.52-1.3-2l.45-.74,3.68,2.25-.45.74Z"/><path class="cls-100" d="M5.18,17.78c1.21.73,1.9,1.8,1.54,2.38s-1.62.46-2.82-.28S2,18.09,2.36,17.5s1.62-.45,2.82.28Z"/><path class="cls-101" d="M6.3,19.91C6,20.38,5,20.28,4,19.68S2.5,18.23,2.78,17.76l4.07-7.12L10.76,13,6.3,19.91Z"/><path class="cls-102" d="M5.68,19.62c-.24.4-1.06.3-1.82-.23s-1.19-1.26-.94-1.66L7,10.65l3.06,2.1-4.4,6.87Z"/><path class="cls-103" d="M7.85,11.71l.93.56c-2.23,3.67-4.46,6.39-5,6.08s.88-3.54,3.11-7.21l.93.57Z"/><path class="cls-104" d="M7.74,11.72l.67.41c-1.89,3.11-3.73,5.44-4.1,5.21s.86-2.93,2.75-6l.68.41Z"/><path class="cls-105" d="M10.77,13h0c-.32.52-1.46.41-2.54-.25s-1.7-1.62-1.38-2.14h0c.41-.67,1.62-.69,2.7,0s1.63,1.74,1.22,2.42Z"/><path class="cls-106" d="M10.35,12.49h0c-.26.43-1.2.35-2.1-.17S6.82,11,7.09,10.6h0c.33-.55,1.34-.58,2.24-.06s1.36,1.39,1,2Z"/><path class="cls-107" d="M19.18,20.17c-1.53-.4-2.21.07-3.6,1.07l-.92.67c-1.05.76-2,0-1-.87l1-.91A5.14,5.14,0,0,1,19.42,19c3.45.83,3.33,2.12-.24,1.2Z"/><path class="cls-108" d="M9.85,11.89h0c-.2.32-.95.32-1.68,0S7,11,7.21,10.68h0c.26-.42,1.06-.5,1.79-.16s1.11.94.85,1.37Z"/><path class="cls-109" d="M37.9,13.19l.31-.29a10.65,10.65,0,0,1,2.11-1.78,4.53,4.53,0,0,1,3.34-.5A7.84,7.84,0,0,1,47,12.39a18.66,18.66,0,0,1,3.49,4A16,16,0,0,1,52.6,21.1,13.35,13.35,0,0,1,53,26.81a17.35,17.35,0,0,1-2.18,5.52c-1.5,2.64-3.31,5.34-5.08,8-.74,1.1-1.47,2.2-2.17,3.27l-1.85-1.2c.71-1.09,1.44-2.18,2.19-3.29,1.73-2.59,3.5-5.23,5-7.85a14.85,14.85,0,0,0,1.92-4.81,11,11,0,0,0-.33-4.79,14,14,0,0,0-1.81-4,16.71,16.71,0,0,0-3.07-3.55,5.86,5.86,0,0,0-2.39-1.3,2.46,2.46,0,0,0-1.77.25,9.79,9.79,0,0,0-1.67,1.43,4.15,4.15,0,0,1-.31.31L37.9,13.19Z"/><path class="cls-110" d="M40.62,12.85c-.58.43-1.1.94-1.65,1.43l.48.48a4.15,4.15,0,0,0,.31-.31A9.79,9.79,0,0,1,41.43,13a2.46,2.46,0,0,1,1.77-.25,5.86,5.86,0,0,1,2.39,1.3,16.71,16.71,0,0,1,3.07,3.55,14,14,0,0,1,1.81,4,11,11,0,0,1,.33,4.79,14.85,14.85,0,0,1-1.92,4.81c-1.49,2.62-3.26,5.26-5,7.85-.75,1.11-1.48,2.2-2.19,3.29l.24.15C44.6,38.64,50.38,30.7,51.12,27a12.58,12.58,0,0,0-1.57-8.55,16,16,0,0,0-4.36-5.18c-1.5-1.14-2.93-1.61-4.57-.42Z"/><path class="cls-111" d="M38.22,13.51C40,11.63,41.5,10,44.33,11a7.31,7.31,0,0,1,1.79.94c3.45,2.43,6.22,7.48,6.73,11.64.4,3.17-.68,6.19-2.2,9l.15-.25A17.35,17.35,0,0,0,53,26.81a13.35,13.35,0,0,0-.38-5.71,16,16,0,0,0-2.09-4.67,18.66,18.66,0,0,0-3.49-4,7.84,7.84,0,0,0-3.36-1.77,4.53,4.53,0,0,0-3.34.5,10.65,10.65,0,0,0-2.11,1.78l-.31.29.32.32Z"/><path class="cls-112" d="M48.37,14.56c-.58-.43-1.17-.08-.57.7a17.14,17.14,0,0,1,3.43,6.81,10.63,10.63,0,0,1-.06,5.7c-.24.81-.18,1.24,0,1.4S52,29,52.29,28a11.15,11.15,0,0,0-.06-6.42c-.77-2.73-2.26-5.82-3.86-7Z"/><path class="cls-113" d="M52.53,23.9c.18,2.46-.6,4.45-1,4.47s.27-2,.1-4.45-1.06-4.33-.71-4.36,1.39,1.89,1.56,4.34Z"/><path class="cls-114" d="M50.61,30.42a19.31,19.31,0,0,1-.16-2.58,18.51,18.51,0,0,1-1.57,3.4c-1.49,2.62-3.26,5.26-5,7.85-.75,1.11-1.48,2.2-2.19,3.29l1.85,1.2c.7-1.07,1.43-2.17,2.17-3.27,1.37-2,2.76-4.12,4-6.18a5.9,5.9,0,0,0,.88-3.71Z"/><path class="cls-115" d="M32.52,13c-6,6.18-15.06,19.4-19.38,27.43-1.55,2.89-2.26,5.65-.43,8.53,1.07,1.69,2.32,3.27,3.41,5a47.06,47.06,0,0,1,6.23,12.67c.4,1.21.66,2.28,1.75,2.74a4.81,4.81,0,0,0,.86.28,2.19,2.19,0,0,0,2.72-1.21c3.14-5.12,6.43-10.4,9.85-15.6,2.36-3.58,4.84-7.08,7.11-10.64,1.35-2.12,2.7-4.25,3.85-6.48a11.69,11.69,0,0,0,1.53-7c-.74-6.83-5.74-12.54-11.26-16.22a4.56,4.56,0,0,0-6.24.54Z"/><path class="cls-116" d="M45.36,35.79c-6,9.05-12.52,18.13-18.27,27.69-.78,1.29-1.53,2.59-2.34,3.86-.91,1.44-1.6,1.07-2.07.27a2.67,2.67,0,0,0,1.42,1.75,4.81,4.81,0,0,0,.86.28,2.19,2.19,0,0,0,2.72-1.21c3.14-5.12,6.43-10.4,9.85-15.6,2.36-3.58,4.84-7.08,7.11-10.64,1.35-2.12,2.7-4.25,3.85-6.48a11.69,11.69,0,0,0,1.53-7c-.74-6.83-5.74-12.54-11.26-16.22a4.59,4.59,0,0,0-5.42-.17,4,4,0,0,1,3.51-.24c3.71,1.44,8.58,7.38,9.95,11.14,1.92,5.23,1.58,8.06-1.44,12.57Z"/><path class="cls-117" d="M44.62,30.74c-5.53,8.73-13.38,19.9-19,28.62-1.88,2.9-3.36,4.17-4.94,2.74.62,1.44,1.14,2.86,1.68,4.52.12.35.22.68.33,1,.47.8,1.16,1.17,2.07-.27.81-1.27,1.56-2.57,2.34-3.86,5.75-9.56,12.23-18.64,18.27-27.69,3-4.51,3.36-7.34,1.44-12.57a14.65,14.65,0,0,0-1.19-2.44c1.6,3.4,1.38,6.23-1,10Z"/><path class="cls-118" d="M26.85,24c2-4.28,4-9.65,6.49-11.67a5.34,5.34,0,0,0-.82.71c-6,6.18-15.06,19.4-19.38,27.43-1.5,2.79-2.21,5.46-.61,8.23-1.13-2.46-.09-4.18,2.13-7.18C18.77,36,24.06,29.91,26.85,24Z"/><path class="cls-119" d="M49.41,33.61a10.51,10.51,0,0,0,.61-4.9c-.74-6.83-5.74-12.54-11.26-16.22a4.59,4.59,0,0,0-5.42-.17,4,4,0,0,1,3.51-.24c3.71,1.44,8.58,7.38,9.95,11.14s1.6,6.38.42,9.24a1.6,1.6,0,0,1,2.19,1.15Z"/><path class="cls-120" d="M46.58,34.4c-1.44,2.41-3.23,4.81-3.42,4.67,0,0,1.56-2.54,2.84-5,1.73-3.26,2.16-4.6,1.37-8.35-.16-.74-.28-1.2-.15-1.22s.42.38.71,1.07c1.42,3.4.4,5.86-1.35,8.78Z"/><path class="cls-121" d="M33.93,13.3a4.86,4.86,0,0,0-.6.52,73.55,73.55,0,0,0-5.07,5.94l-.49.63A1.13,1.13,0,0,0,28,22a38.31,38.31,0,0,1,9.13,10.31,40.48,40.48,0,0,1,3.3,6.54c.12.28.31.74.61.78s.63-.37.8-.62l2.59-3.85A18.17,18.17,0,0,0,46.16,32c1.23-3,.64-5.49-.43-8.41a24.51,24.51,0,0,0-6.4-8.6l-.47-.38c-.27-.22-.55-.43-.85-.63l-.33-.22a7,7,0,0,0-1.25-.64,2.82,2.82,0,0,0-2.5.16Zm-8.5,10.2c-.92,1.26-1.83,2.53-2.71,3.8Q21,29.82,19.3,32.4a1.41,1.41,0,0,0,.25,1.83,45.86,45.86,0,0,1,8.78,10.93A44.58,44.58,0,0,1,31.56,52c.1.29.33.71.63.75s.61-.33.78-.59q3-4.45,6-8.86a3.08,3.08,0,0,0,.36-2.82,38.59,38.59,0,0,0-3.55-7.28A36.52,36.52,0,0,0,27,23.26a1.08,1.08,0,0,0-.85-.21,1.09,1.09,0,0,0-.74.45ZM17.06,36c-1,1.65-2,3.33-2.92,5-1.32,2.46-2.07,4.85-.47,7.38,1.07,1.69,2.32,3.27,3.4,4.95a54.62,54.62,0,0,1,5,9.1c.53,1.28,1,2.56,1.4,3.86a.34.34,0,0,0,.28.23.36.36,0,0,0,.33-.15c.71-1.09,1.41-2.4,2.06-3.48Q28,59.74,30,56.65a3.59,3.59,0,0,0,.39-3.21A42.67,42.67,0,0,0,26.94,46,44.26,44.26,0,0,0,18.8,35.71a1.12,1.12,0,0,0-.93-.28,1.06,1.06,0,0,0-.81.53Z"/><path class="cls-122" d="M33.93,13.3a4.86,4.86,0,0,0-.6.52,73.55,73.55,0,0,0-5.07,5.94l-.49.63A1.13,1.13,0,0,0,28,22a38.31,38.31,0,0,1,9.13,10.31,40.48,40.48,0,0,1,3.3,6.54c.12.28.31.74.61.78s.63-.37.8-.62l2.59-3.85A18.17,18.17,0,0,0,46.16,32c1.23-3,.64-5.49-.43-8.41a24.51,24.51,0,0,0-6.4-8.6l-.47-.38c-.27-.22-.55-.43-.85-.63l-.33-.22a7,7,0,0,0-1.25-.64,2.82,2.82,0,0,0-2.5.16Zm-8.5,10.2c-.92,1.26-1.83,2.53-2.71,3.8Q21,29.82,19.3,32.4a1.41,1.41,0,0,0,.25,1.83,45.86,45.86,0,0,1,8.78,10.93A44.58,44.58,0,0,1,31.56,52c.1.29.33.71.63.75s.61-.33.78-.59q3-4.45,6-8.86a3.08,3.08,0,0,0,.36-2.82,38.59,38.59,0,0,0-3.55-7.28A36.52,36.52,0,0,0,27,23.26a1.08,1.08,0,0,0-.85-.21,1.09,1.09,0,0,0-.74.45ZM17.06,36c-1,1.65-2,3.33-2.92,5-1.32,2.46-2.07,4.85-.47,7.38,1.07,1.69,2.32,3.27,3.4,4.95a54.62,54.62,0,0,1,5,9.1c.53,1.28,1,2.56,1.4,3.86a.34.34,0,0,0,.28.23.36.36,0,0,0,.33-.15c.71-1.09,1.41-2.4,2.06-3.48Q28,59.74,30,56.65a3.59,3.59,0,0,0,.39-3.21A42.67,42.67,0,0,0,26.94,46,44.26,44.26,0,0,0,18.8,35.71a1.12,1.12,0,0,0-.93-.28,1.06,1.06,0,0,0-.81.53Z"/><path class="cls-123" d="M33.93,13.3a4.86,4.86,0,0,0-.6.52,73.55,73.55,0,0,0-5.07,5.94l-.49.63A1.13,1.13,0,0,0,28,22a38.31,38.31,0,0,1,9.13,10.31,40.48,40.48,0,0,1,3.3,6.54c.12.28.31.74.61.78s.63-.37.8-.62l2.59-3.85A18.17,18.17,0,0,0,46.16,32c1.23-3,.64-5.49-.43-8.41a24.51,24.51,0,0,0-6.4-8.6l-.47-.38c-.27-.22-.55-.43-.85-.63l-.33-.22a7,7,0,0,0-1.25-.64,2.82,2.82,0,0,0-2.5.16Zm-8.5,10.2c-.92,1.26-1.83,2.53-2.71,3.8Q21,29.82,19.3,32.4a1.41,1.41,0,0,0,.25,1.83,45.86,45.86,0,0,1,8.78,10.93A44.58,44.58,0,0,1,31.56,52c.1.29.33.71.63.75s.61-.33.78-.59q3-4.45,6-8.86a3.08,3.08,0,0,0,.36-2.82,38.59,38.59,0,0,0-3.55-7.28A36.52,36.52,0,0,0,27,23.26a1.08,1.08,0,0,0-.85-.21,1.09,1.09,0,0,0-.74.45ZM17.06,36c-1,1.65-2,3.33-2.92,5-1.32,2.46-2.07,4.85-.47,7.38,1.07,1.69,2.32,3.27,3.4,4.95a54.62,54.62,0,0,1,5,9.1c.53,1.28,1,2.56,1.4,3.86a.34.34,0,0,0,.28.23.36.36,0,0,0,.33-.15c.71-1.09,1.41-2.4,2.06-3.48Q28,59.74,30,56.65a3.59,3.59,0,0,0,.39-3.21A42.67,42.67,0,0,0,26.94,46,44.26,44.26,0,0,0,18.8,35.71a1.12,1.12,0,0,0-.93-.28,1.06,1.06,0,0,0-.81.53Z"/><path class="cls-124" d="M41.14,39.16c-.25,0-.5-.67-.6-1a39.33,39.33,0,0,0-6.42-11.55,33.08,33.08,0,0,0-6-5.3,1.14,1.14,0,0,1-.45-.76v0a1.18,1.18,0,0,0-.11.67A1.14,1.14,0,0,0,28,22a38.31,38.31,0,0,1,9.13,10.31,40.48,40.48,0,0,1,3.3,6.54c.12.28.31.74.61.78s.63-.37.8-.62l2.59-3.85A18.17,18.17,0,0,0,46.16,32a8.63,8.63,0,0,0,.62-2.25,9.47,9.47,0,0,1-.5,1.6,22.3,22.3,0,0,1-2,3.7c-1.36,2-2.78,4.13-3.16,4.09Zm-8.06,12.3c-.18.25-.54.86-.84.83s-.47-.7-.57-1a47.77,47.77,0,0,0-5.18-10.42,36.17,36.17,0,0,0-6.83-7.3,1.31,1.31,0,0,1-.47-1,1.39,1.39,0,0,0,.36,1.61,45.86,45.86,0,0,1,8.78,10.93A44.58,44.58,0,0,1,31.56,52c.1.29.33.71.63.75s.61-.33.78-.59q3-4.45,6-8.86a3.09,3.09,0,0,0,.54-1.57c-.52,1.71-5.15,8-6.41,9.78ZM24.16,65.72c-.07.11-.23.36-.37.34s-.2-.29-.24-.42a45.74,45.74,0,0,0-3.77-9.32c-1.86-3.42-4.08-5.56-6-8.59A5.44,5.44,0,0,1,12.92,44a5.47,5.47,0,0,0,.75,4.34c1.07,1.69,2.32,3.27,3.4,4.95a54.62,54.62,0,0,1,5,9.1c.53,1.28,1,2.56,1.4,3.86a.34.34,0,0,0,.28.23.36.36,0,0,0,.33-.15c.71-1.09,1.41-2.4,2.06-3.48Q28,59.74,30,56.65a3.58,3.58,0,0,0,.59-1.71c-.46,1.54-5.31,9-6.43,10.78Z"/><path class="cls-125" d="M27,23.6a29.64,29.64,0,0,1,4.16,3.82A44.68,44.68,0,0,1,38,37.59c.13.27.23.67.15.71s-.29-.2-.48-.51a79.72,79.72,0,0,0-6.94-10c-1.43-1.7-3.6-4-4.46-4-.27,0-.59.11-.57.07.19-.41.72-.66,1.38-.24Z"/><path class="cls-126" d="M18.66,35.94a30.27,30.27,0,0,1,3.95,4.14,46.57,46.57,0,0,1,6.46,10.48c.13.28.21.69.14.74s-.28-.23-.46-.56a82.94,82.94,0,0,0-6.64-10.29c-1.36-1.82-3.41-4.34-4.25-4.37-.25,0-.56.08-.55,0,.2-.41.71-.64,1.35-.18Z"/><path class="cls-127" d="M36,13.25c2.1.77,4.89,3.45,6.42,5.33,2.06,2.51,4.09,6.83,4,8.91,0,.41-.09.69-.22.12A21.33,21.33,0,0,0,42,19.11c-3.63-4.24-6.19-5.38-7.49-5.36-.26,0-.59.1-.57.07a2,2,0,0,1,2-.57Z"/><path class="cls-128" d="M42.14,11.12c-1.83.35-2.66,1.37-2.5,1.62s1.06-.73,2.91-.94c2-.23,3.61,1.69,3.88,1.56C47.31,12.91,44.69,10.62,42.14,11.12Z"/><path class="cls-129" d="M48.29,52.88a3.7,3.7,0,0,0-.64-.71,2.64,2.64,0,0,0-2.77-.41,4.27,4.27,0,0,0-.27,7.42,2.63,2.63,0,0,0,2,.26c2.55-.65,3.17-4.45,1.71-6.56Z"/><path class="cls-130" d="M45,51.57a3.71,3.71,0,0,1,1.15-.15A3.25,3.25,0,0,1,49,53.84a3.42,3.42,0,0,1-1.44,4,2.94,2.94,0,0,1-2,.39c-3.53-.69-3.69-5.82-.63-6.71Z"/><path class="cls-131" d="M47.25,52.25a2.63,2.63,0,0,0-.64-.46,2.2,2.2,0,0,0-2.34.16,3.57,3.57,0,0,0,1.11,6.1A2.26,2.26,0,0,0,47,57.91c2-1,1.79-4.21.21-5.66Z"/><path class="cls-132" d="M47.14,52.29a2.59,2.59,0,0,0-.66-.47,2.21,2.21,0,0,0-2.37.16,3.63,3.63,0,0,0,1.13,6.21,2.21,2.21,0,0,0,1.68-.14c2-1,1.83-4.28.22-5.76Z"/><path class="cls-133" d="M44,52.83a2.72,2.72,0,0,0-1,2.75,2.65,2.65,0,0,0,1.84,2.09c1.37.39,2.56-1.37,2.21-3s-1.8-2.76-3.09-1.86Z"/><path class="cls-134" d="M23.11,57.23A1.75,1.75,0,1,1,26,59.16L24.43,61.6l4.34.4a2,2,0,0,0,1-.14A5.57,5.57,0,0,0,30.92,61l3.83-3.3a14.68,14.68,0,0,1,2.78-2,13.07,13.07,0,0,1,3.14-1.18h0l3.34-1a1.75,1.75,0,1,1,1,3.37l-3.32,1-.13,0a11.86,11.86,0,0,0-2.4.89,9,9,0,0,0-2,1.46.39.39,0,0,1-.1.08l-3.85,3.32a8.69,8.69,0,0,1-2,1.36,5.2,5.2,0,0,1-2.75.44L23.14,65a3,3,0,0,1-2.63-1.38,2.77,2.77,0,0,1,.27-2.85l.12-.21,2.21-3.34Z"/><path class="cls-135" d="M21.14,61.1l3.05-4.62a1.74,1.74,0,0,0-1.08.75L20.9,60.57l-.12.21a2.75,2.75,0,0,0-.27,2.85A3,3,0,0,0,23.14,65l5.31.48a5.2,5.2,0,0,0,2.75-.44,8.69,8.69,0,0,0,2-1.36l3.85-3.32a.39.39,0,0,0,.1-.08,9,9,0,0,1,2-1.46,11.86,11.86,0,0,1,2.4-.89l.13,0,3.32-1a1.74,1.74,0,0,0,1.22-1.28,2.13,2.13,0,0,1-1.31.7l-3.37,1A10,10,0,0,0,36.63,60l-3.52,3.07c-1.78,1.54-2.85,2.3-5.24,2.06l-5-.5c-2.41-.24-2.66-2.19-1.74-3.57Z"/><path class="cls-136" d="M24.43,61.6l-1.16,1.76a3.42,3.42,0,0,1,3.47-1.14l2.12.25a2.34,2.34,0,0,0,1.95-.81l4.05-3.44a13.54,13.54,0,0,1,6.32-3.45l2.92-.86a2.19,2.19,0,0,1,1.49,0,1.74,1.74,0,0,0-1.54-.29l-3.34,1h0a13.07,13.07,0,0,0-3.14,1.18,14.68,14.68,0,0,0-2.78,2L30.92,61a5.57,5.57,0,0,1-1.16.83,2,2,0,0,1-1,.14l-4.34-.4Z"/><path class="cls-137" d="M25.58,59.86c-.26.4-1.08.21-1.83-.41s-1.16-1.44-.9-1.83l.53-.8,2.73,2.25-.53.79Z"/><path class="cls-138" d="M34.73,58.61c.49-.45,1-.88,1.52-1.29a11.14,11.14,0,0,1,3.92-2.06c.65-.2,1.31-.38,2-.56,1.82-.52,2.32.49.33,1.13-.63.2-1,.32-1.67.54a10.65,10.65,0,0,0-4,2.19c-.38.31-.74.63-1.1.95-1.77,1.56-2.25.29-.94-.9Z"/><path class="cls-139" d="M27.39,62.57l1.57.16a1.63,1.63,0,0,0,1.44-.41l1.83-1.55c1-.84,2-.06,1,.87l-1.36,1.29A3.06,3.06,0,0,1,29,64l-2-.19c-1.59-.16-1.75-1.44.39-1.21Z"/><path class="cls-140" d="M37.79,56.39c1.61-.92,3.15-1.24,3.28-1s-1.4.69-3,1.64-2.81,2-2.94,1.74,1-1.44,2.65-2.36Z"/><path class="cls-141" d="M27,59.42c-.39.59-1.69.41-2.91-.39s-1.9-1.94-1.51-2.53l.59-.89,4.42,2.92-.59.89Z"/><path class="cls-142" d="M26.61,58.94c-.33.5-1.44.35-2.47-.33s-1.6-1.64-1.27-2.14l.49-.75,3.74,2.47-.49.75Z"/><path class="cls-143" d="M26.11,56c1.23.81,1.9,1.94,1.51,2.53s-1.7.41-2.92-.39-1.89-1.94-1.5-2.53,1.69-.42,2.91.39Z"/><path class="cls-101" d="M27.2,58.25c-.32.48-1.37.33-2.36-.32s-1.53-1.56-1.22-2l4.49-7.24,4,2.64-4.88,7Z"/><path class="cls-144" d="M26.56,57.93c-.27.4-1.11.27-1.88-.3s-1.19-1.36-.92-1.76l4.53-7.21L31.39,51l-4.83,7Z"/><path class="cls-145" d="M29.11,49.8l.95.62c-2.46,3.72-4.88,6.46-5.4,6.12s1.05-3.64,3.51-7.37l.94.63Z"/><path class="cls-146" d="M29,49.81l.69.45c-2.08,3.15-4.08,5.5-4.46,5.25s1-3,3.09-6.15l.68.45Z"/><path class="cls-147" d="M32.09,51.27h0c-.35.53-1.53.38-2.62-.35s-1.71-1.74-1.36-2.27h0c.46-.68,1.71-.65,2.81.07s1.62,1.87,1.17,2.55Z"/><path class="cls-148" d="M31.68,50.7h0c-.29.43-1.27.32-2.18-.25s-1.43-1.39-1.14-1.83h0c.37-.56,1.41-.56,2.33,0s1.36,1.5,1,2.06Z"/><path class="cls-149" d="M31.18,50.06h0c-.22.33-1,.3-1.75-.07s-1.17-1-.95-1.28h0c.29-.43,1.12-.48,1.86-.11s1.12,1,.84,1.46Z"/><path class="cls-150" d="M33.93,13.3a4.86,4.86,0,0,0-.6.52,73.55,73.55,0,0,0-5.07,5.94l-.49.63A1.13,1.13,0,0,0,28,22a38.31,38.31,0,0,1,9.13,10.31,40.48,40.48,0,0,1,3.3,6.54c.12.28.31.74.61.78s.63-.37.8-.62l2.59-3.85A18.17,18.17,0,0,0,46.16,32c1.23-3,.64-5.49-.43-8.41a24.51,24.51,0,0,0-6.4-8.6l-.47-.38c-.27-.22-.55-.43-.85-.63l-.33-.22a7,7,0,0,0-1.25-.64,2.82,2.82,0,0,0-2.5.16Z"/><path class="cls-151" d="M25.43,23.5c-.92,1.26-1.83,2.53-2.71,3.8Q21,29.82,19.3,32.4a1.41,1.41,0,0,0,.25,1.83,45.86,45.86,0,0,1,8.78,10.93A44.58,44.58,0,0,1,31.56,52c.1.29.33.71.63.75s.61-.33.78-.59q3-4.45,6-8.86a3.08,3.08,0,0,0,.36-2.82,38.59,38.59,0,0,0-3.55-7.28A36.52,36.52,0,0,0,27,23.26a1.08,1.08,0,0,0-.85-.21,1.09,1.09,0,0,0-.74.45Z"/><path class="cls-152" d="M17.06,36c-1,1.65-2,3.33-2.92,5-1.32,2.46-2.07,4.85-.47,7.38,1.07,1.69,2.32,3.27,3.4,4.95a54.62,54.62,0,0,1,5,9.1c.53,1.28,1,2.56,1.4,3.86a.34.34,0,0,0,.28.23.36.36,0,0,0,.33-.15c.71-1.09,1.41-2.4,2.06-3.48Q28,59.74,30,56.65a3.59,3.59,0,0,0,.39-3.21A42.67,42.67,0,0,0,26.94,46,44.26,44.26,0,0,0,18.8,35.71a1.12,1.12,0,0,0-.93-.28,1.06,1.06,0,0,0-.81.53Z"/></g></g></g></svg>